<?xml version="1.0" encoding="utf-8"?>
<!-- Generator: Adobe Illustrator 19.0.0, SVG Export Plug-In . SVG Version: 6.00 Build 0)  -->
<svg version="1.1" xmlns="http://www.w3.org/2000/svg" xmlns:xlink="http://www.w3.org/1999/xlink" x="0px" y="0px"
	 viewBox="0 0 500 500" style="enable-background:new 0 0 500 500;" xml:space="preserve">
<style type="text/css">
	.st0{display:none;}
	.st1{display:inline;fill:#FFFFFF;}
	.st2{fill:#FFFFFF;}
	.st3{fill:#F9F4B7;}
	.st4{fill:#F2EF88;}
	.st5{fill:#EDE7B0;}
	.st6{fill:#FFFDB8;}
	.st7{fill:#2F2F2F;}
	.st8{fill:#1E1E1E;}
	.st9{fill:#FFFFA4;}
	.st10{fill:#E0DB75;}
	.st11{fill:#EFEC92;}
	.st12{fill:#DDD983;}
	.st13{fill:#5B5B51;}
	.st14{fill:#63624F;}
	.st15{fill:#7C7C67;}
	.st16{fill:#93937B;}
	.st17{fill:#A1A1A1;}
	.st18{fill:#FFFFF3;}
	.st19{fill:#FFFF7B;}
	.st20{fill:none;stroke:#000000;stroke-width:0;stroke-linecap:round;stroke-linejoin:round;}
	.st21{fill:#FCFCFC;}
	.st22{fill:#191919;}
	.st23{fill:#0C0C0C;}
</style>
<g id="Слой_1" class="st0">
	<rect id="XMLID_1_" class="st1" width="500" height="500"/>
</g>
<g id="Слой_4">
	<g id="XMLID_2_">
		<g id="XMLID_48_">
			<path id="XMLID_45_" d="M450.7,191.3c18.3-3.3,35.4-13,38.5-17.5c0.2-0.4,0.1-1-0.5-1c-19.8,0.3-39.7,0.7-59.5,1
				c-9.1,0.1-18.4,0-27.1-3c-5.1-1.8-10.2-4.2-15.5-4.5c19.5-6.2,40.5-6,59.7-13.4c14.9-5.8,29.1-16.3,33-32.6
				c0.1-0.5-0.5-0.9-0.9-0.6c-31.1,17.1-67.4,18.2-102.1,18.6c17.2-15.5,27.9-29.4,34.4-39c5.1-7.6,9.2-14.9,7.2-22.7
				c-1.5-5.7-5.6-9.4-8.5-11.5c-3.8,6.2-9.4,14.8-17.3,24.1c-2.8,3.3-8.4,9.7-20.8,21.2c-11.6,10.7-15.6,13.2-45.2,37.7
				c-9.5,7.9-15,12.5-22,19.6c-8.7,8.8-14.4,16-17.1,19.4c-5.6,7.3-8.9,11.6-12.2,17.9c-4.9,9.3-11.7,22.4-8.8,36.4
				c0.3,1.6,1,3.3,1.4,4.5c3,9.1,5.6,11.3,8.5,18.1c4.5,10.4,2.2,13.3,7.4,21c2,3,4,5.2,5.3,6.4c4.6,3.9,9.6,7.5,14.4,11.2
				c2.3,1.8,4.7,3.6,7,5.4c2.5,1.9,5,4.3,7.7,5.9c1.9,1.1,5.1,1.5,5-1.6c0-1.9-1.3-4-2.1-5.6c0-0.1-0.1-0.2-0.1-0.3
				c2.9,2.1,6.3,3.5,10,4c0.4,0,0.8-0.3,0.7-0.7c-2.8-10.3-10.5-17.8-18.4-24.6c3.6,1.7,6.5,4.4,9.4,7.1c3.5,3.1,7.2,5.9,11.3,8.1
				c7.8,4.2,16.6,6.3,25.5,6.3c0.7,0,0.9-0.7,0.4-1.2c-9.4-8.7-18.8-17.3-28.1-26c15.3,9.3,32.9,14.4,50.8,14.6c0.5,0,1-0.6,0.6-1
				c-9.7-10.1-20.5-19-32.3-26.4c9.8,5.8,18.7,8.4,24.6,9.7c11.3,2.5,19.7,1.6,23.7,1c3.3-0.5,6-1.2,7.9-1.8c-1.7-1-4.2-2.4-7.3-4.2
				c-9.7-5.8-17.8-10.6-26.8-17.7c-1.5-1.2-3.9-3.1-6.8-5.6c1.6,0.6,4.1,1.4,7.2,2.3c7.4,2.1,11.6,2.7,17.5,4.1
				c7.6,1.8,7.3,2.5,15.1,4.5c18.2,4.6,30.1,4.4,32.3,1c0.9-1.4,0.9-2.9,0.9-2.9c0-2.2-1.5-3.8-2-4.4c-4.1-4.5-18.6-6.4-20-6.6
				c-8.2-1.1-14-3.2-25.5-7.4c-5.7-2.1-13.9-5.5-23.2-11.4c3.7,0.7,9.5,1.6,16.5,2.7c15.2,2.3,17.3,2.1,27.1,3.6
				c12.7,2,14.8,3.2,31.6,5.8c0,0,14.6,2.2,24.5-3.4c0.2-0.1,0.3-0.3,0.3-0.3c0.1-0.4-0.1-0.8-0.5-0.9
				c-31.3-5.6-61.8-15.3-90.6-28.8c10.2,0.8,20.6,1.8,30.3,5.1c9.8,3.3,18.3,9.2,28.7,10.7c0,0,13.4,1.6,28.7-3.4
				c1.2-0.4,4.2-1.8,10.2-4.5c3.4-1.6,5.7-2.7,7.3-5.2c0.3-0.6,1.8-3.1,0.9-4.7c-0.2-0.4-0.6-0.7-1-0.9c-5.8-3.1-12.7-1.9-12.7-1.9
				c-5.8,1-19.9-1.3-48.1-6c-7.2-1.2-14.3-2.7-14.3-2.7c-2.6-0.6-4.8-1.1-6.3-1.4c5.8,1,13.8,2.1,23.3,2.3
				C431,193,439.9,193.2,450.7,191.3z"/>
			<g id="XMLID_36_">
				<g id="XMLID_56_">
					<path id="XMLID_57_" class="st2" d="M431.4,174.9c18.7-0.3,37.3-0.6,56-0.9c-3.6,3-9.3,7.2-16.9,10.4
						c-8.3,3.5-15.2,4.5-23.5,5.7c-3.2,0.5-10.6,1.4-21.2,1.4c-17.7,0.1-29.4-2.4-29.5-2c-0.1,0.8,57.6,15,73.8,12.6
						c1.3-0.2,9.9-1.6,12.1,1.8c0.1,0.2,0.4,0.6,0.4,1.1c0.3,2.3-3.1,4.7-7.4,7c-5.1,2.7-10.3,5.2-19,7.2c-6.5,1.4-13.3,1.9-19.9,1
						c-6.9-1-13-3.9-19.2-6.8c-13.7-6.5-28.4-8.1-43.3-9.2c-0.7-0.1-0.9,0.9-0.3,1.2c29.3,14,60.3,24.1,92.2,30
						c-8.4,3.8-17.5,3.5-26.7,2c-10.3-1.7-10.5-2.8-27-5.3c-12.2-1.8-19.3-1.8-29-3.5c-4.4-0.8-8.7-1.3-13.1-2.1
						c-2.8-0.5-3.7-0.8-3.8-0.5c-0.4,1,13.5,10.1,30.2,15.5c18.2,5.9,37.5,6.7,41.1,13.6c0.2,0.4,0.7,1.5,0.4,2.5
						c-1.3,4-13.8,3.3-16.2,3.2c-12.7-0.7-13.1-4.4-30.2-8.2c-9-2-15.1-2.3-26.3-6.3c-2.5-0.9-4.5-1.7-5.8-2.2
						c9.9,8.8,21.7,17.9,35.7,26.1c3.2,1.9,6.4,3.6,9.5,5.3c-2.9,0.4-7.4,0.9-12.9,0.8c-7.4-0.2-20.6-0.5-32.9-7.7
						c-7.2-4.2-15.4-6.4-22.8-10.1c-0.3-0.2-0.4-0.1-0.4,0c-0.1,0.2,2.5,1.9,5.6,3.8c6,3.8,12.3,8.1,18.7,13
						c7.8,5.9,14.8,11.9,20.9,17.5c-9.2-0.7-16.9-2.2-22.7-3.7c-4-1-10.7-2.8-18.8-6.6c-4.2-1.9-7.5-3.8-10-5.3
						c0.3,0.7,0.7,1.7,1.5,2.8c1.7,2.6,3.9,3.9,4.6,4.4c4,2.7,4.7,5.1,12.6,12.6c2.2,2.1,5.4,5,9.6,8.3c-15.5-1.6-22.8-5-26.6-8.1
						c-3.3-2.6-6.9-4.7-9.9-7.7c-0.8-0.8-2.7-2.8-5.8-4.2c-1.4-0.6-2.7-0.9-3.5-1.1c0.8,1.1,1.9,2.7,3.5,4.6c2.7,3.2,5,5.3,5.7,6
						c2.5,2.3,5.7,6.4,8.8,14.2c-2.3-0.5-5.3-1.5-8.3-3.4c-1-0.7-1.9-1.3-2.7-2c0.5,1.4,1,2.5,1.3,3.2c1.3,2.9,2,4,1.7,5.5
						c-0.1,0.4-0.3,1.1-0.9,1.4c-1.1,0.6-3-1-3.7-1.5c-3.4-2.8-7.1-5.3-10.4-8.3c-3.9-3.7-3.5-2.4-11-8.5c-5.6-4.5-8.3-6.8-9.9-8.7
						c-5.1-6-4.7-10.7-8.3-21.2c-4.1-11.9-6.6-12-8.8-19.1c-4.9-16.2,3.4-32.4,9-43.2c7.9-15,17.3-24.9,25.9-33.4
						c40.7-39.9,62.5-47,89.4-80.1c7.8-9.6,13.3-18.1,16.4-23.1c6.2,3.1,8.4,10.7,7.3,17.2c-1.3,7.6-6.4,13.9-10.8,19.9
						c-9.4,12.7-19.1,25.3-31.9,34.8c-0.4,0.3-0.2,1.1,0.3,1.1c35-0.4,71.8-1.1,103.3-18c-4.6,16.2-20.1,26.3-35.3,31.5
						c-20,6.7-41.7,6.2-61.5,14c-0.8,0.3-0.2,1.4,0.5,1.2c8.4-2.6,16.7,3.2,24.6,5.2C414.3,175.3,422.9,175.1,431.4,174.9z"/>
				</g>
			</g>
			<path id="XMLID_170_" class="st3" d="M373.9,204.1c0.1-0.2,0.4-0.3,12.3,1.1c4.1,0.5,8.1,1.1,12.1,1.9c3.3-0.8,6-3.1,6.8-6.1
				c1.1-4.2-1.7-9.2-6.9-10.8c-1.2-0.4-1.9-0.6-1.8-0.7c0-0.1,0.6,0,1.7,0.1c0.6-0.3,6.7-3.1,7.3-8.3c0.7-5.6-5.1-12.6-14.6-13.3
				c-3.1-0.7-6.2-0.9-9.3,0c-0.8,0.2-1.3-0.9-0.5-1.2c2.7-1.1,5.4-1.9,8.2-2.7c0.6-0.7,4.8-6.1,3.3-12.8
				c-1.4-6.3-7.2-11.2-14.4-11.9c-1.2,0-2.4,0-3.6,0c-0.6,0-0.8-0.8-0.3-1.1c0.9-0.6,1.7-1.3,2.5-2c4.1-3.2,5.6-8.5,4-12.9
				c-2-5.3-8.3-8.4-14.3-6.6c-17.2,14.6-35.8,26.6-62.5,52.8c-8.7,8.5-18.1,18.4-25.9,33.4c-5.6,10.8-14,27-9,43.2
				c2.2,7.1,4.7,7.1,8.8,19.1c2.8,8.2,3.2,12.8,5.6,17.3c0.6,0.6,8.8,9.2,19.5,7c4.9-1,8.1-3.8,9.7-5.3c2.5,4.5,8,6,12,3.7
				c3.5-2,5.2-6.5,3.7-10.7c8.2,7.9,18.3,7.5,21.7,3.3c2.4-3.1,1.7-8.8-1.1-13.8c-2.4-1.6-4.8-3.3-7.3-4.8c-3-1.9-5.7-3.6-5.6-3.8
				c0,0,0.1-0.1,0.4,0c5.1,2.6,10.5,4.4,15.7,6.6c5.1,2.6,11.2,1.6,14.6-2.2c4-4.3,2.7-10.2,2.6-10.7c-3.3-2.7-6.5-5.3-9.4-8
				c1.3,0.5,3.3,1.3,5.8,2.2c2.7,1,5.2,1.7,7.4,2.3c0.3,0,5.9,0.6,9.3-3.8c2.7-3.6,1.9-7.7,1.8-8.3c-10.5-4.8-17.8-9.8-17.5-10.6
				c0.1-0.2,1,0,3.8,0.5c4.3,0.8,8.7,1.3,13.1,2.1c2,0.3,3.8,0.6,5.6,0.9c3.7,1.1,7.7-0.6,9.5-4c1.8-3.5,0.8-7.8-2.3-10.2
				C377.4,207.3,373.6,204.8,373.9,204.1z"/>
			<path id="XMLID_171_" class="st4" d="M352.1,205.8c0-0.2,0.3-0.2,9.1,1c3,0.4,6,0.9,8.9,1.6c2.5-0.7,4.4-2.7,5-5.2
				c0.8-3.6-1.3-7.9-5.1-9.3c-0.9-0.3-1.4-0.5-1.4-0.6c0-0.1,0.5,0,1.3,0.1c0.5-0.2,4.9-2.7,5.4-7.1c0.5-4.8-3.8-10.8-10.8-11.4
				c-2.3-0.6-4.6-0.8-6.9,0c-0.6,0.2-1-0.7-0.4-1c2-0.9,4-1.7,6.1-2.3c0.4-0.6,3.5-5.2,2.4-11c-1-5.4-5.3-9.6-10.7-10.2
				c-0.9,0-1.8,0-2.7,0c-0.4,0-0.6-0.7-0.3-1c0.6-0.5,1.3-1.1,1.9-1.7c3-2.7,4.2-7.3,2.9-11.1c-1.5-4.6-6.1-7.2-10.6-5.7
				c-12.7,12.5-26.5,22.9-46.2,45.4c-6.4,7.3-13.4,15.8-19.2,28.7c-4.2,9.3-10.3,23.2-6.7,37.1c1.6,6.1,3.5,6.1,6.5,16.4
				c2.1,7,2.4,11,4.2,14.9c0.4,0.5,6.5,7.9,14.4,6c3.6-0.9,6-3.2,7.1-4.6c1.8,3.8,5.9,5.1,8.9,3.1c2.6-1.7,3.8-5.6,2.7-9.2
				c6.1,6.8,13.6,6.5,16,2.9c1.8-2.6,1.3-7.5-0.8-11.9c-1.8-1.3-3.5-2.8-5.4-4.2c-2.2-1.6-4.2-3.1-4.1-3.3c0,0,0-0.1,0.3,0
				c3.7,2.2,7.7,3.8,11.6,5.7c3.8,2.2,8.2,1.4,10.8-1.9c2.9-3.7,2-8.8,1.9-9.2c-2.5-2.3-4.8-4.6-7-6.8c1,0.5,2.5,1.1,4.3,1.9
				c2,0.8,3.8,1.5,5.5,2c0.2,0,4.4,0.5,6.9-3.3c2-3.1,1.4-6.6,1.3-7.1c-7.7-4.1-13.2-8.4-12.9-9.1c0.1-0.2,0.8,0,2.8,0.5
				c3.2,0.7,6.5,1.1,9.7,1.8c1.5,0.3,2.8,0.5,4.2,0.7c2.8,0.9,5.7-0.5,7-3.4c1.3-3,0.6-6.7-1.7-8.8
				C354.7,208.6,351.9,206.4,352.1,205.8z"/>
			<g id="XMLID_44_">
				<path id="XMLID_62_" d="M381.3,167.5c-0.7-0.8-1.9-1.1-2.8-0.4c-0.8,0.6-0.6,1-1.6,1.6c-1.6,0.9-3.4,1.3-5.2,1.8
					c-0.2,0.1-0.4,0.4-0.1,0.6c-0.2,1-0.3,2-0.5,3c-0.4,0.1-0.8,0.3-1.2,0.4c-0.5,0.1-1,0.2-1.5,0.3c-1.3,0.3-2.7,0.6-4,0.9
					c-0.9,0.2-1.7,0.4-2.1,1.3c-0.2,0.5-0.1,1.1-0.3,1.6c-0.2,0.7-1,2-1.8,2.2c-0.4,0.1-1-0.2-1.4-0.2c-1,0-1.2,0.5-1.9,1
					c-0.5,0.3,0.1,0.3-0.9,0.1c-1.1-0.2-2.3-0.7-3.4-1.1c-1-0.3-3.2-1.6-4.2-1c-0.2,0.1-0.3,0.3-0.4,0.5c-0.4,0.3-0.8,1.1-1.5,1.2
					c-0.5,0.1-1.3-0.2-1.8-0.2c-2.9-0.4-5.7-1.2-8.5-2.3c-0.1-0.1-0.3,0-0.3,0.2c0,0.1,0.2,1.6,0.3,1.6c-0.4,0.9-2.6,1.1-3.5,1.4
					c-2.8,0.9-5.6,1.8-8.4,2.7l-8.4,2.7c-1.7,0.6-4.7,0.9-6.1,2.3c-0.4,0.4-0.4,1-0.7,1.3c-0.5,0.7-1.3,0.4-2.2,0.3
					c-2.8-0.2-5.6-0.6-8.4-0.6c-1.4,0-2.4,0.8-3.8,0.7c-2.9-0.2-5.8-1.1-8.5-2c4-2.4,8.1-3.9,12.4-5.4c1.4-0.5,2.6-1.1,3.7-2
					c1.7-1.4,3.6-1.8,5.7-2.5c2-0.8,4.6-1.6,6.2-2.9c0.4-0.4,0.5-0.9,0.8-1.2c1.2-1.2,3.8-1.8,5.3-2.7c1.8-1,3.6-2.1,5.3-3.3
					c1.6-1.1,6.2-3.6,5.5-6.2c0,0.2-0.3-0.8-0.5-1c0.1,0,0.3,0,0.5-0.1c1.5-1,3.3-1.7,4.8-2.7c1.8-1.2,3.5-2.5,5.6-3.2
					c1.8-0.6,3.8-0.5,5.4-1.5c0.5-0.3,1-0.7,1.3-1.2c0.2-0.3,0.4-1,0.6-1.1c0.2-0.1,1,0.1,1.3,0.2c0.6,0,1.3,0,1.9-0.2
					c1.2-0.4,2.2-1.2,2.8-2.3c0.7-1.2,1.2-1.7,2.6-2.1c1-0.3,1.9-0.7,3-0.9c2.2-0.5,4.9-1.8,7.7-3.1c3.3-1.6,7.2-3.5,6.9-4.7
					c-0.1-0.4-0.6-0.6-0.9-0.7c-8.1,6.5-12.3,8.1-14.7,8.3c-0.7,0-3.2-0.1-4.4,1.5c-0.7,0.9-0.7,2-1.7,2.7c-1.3,1-3.1,1.2-4.6,0.5
					c-0.2-0.1-0.4,0.1-0.4,0.3c-0.4,3.2-3.9,3-6.2,3.7c-1.3,0.4-2.5,1-3.7,1.7c-2.8,1.7-5.3,4-8.5,4.9c-0.3,0.1-0.3,0.4-0.1,0.5
					c2.6,1.4-2.2,4.8-2.9,5.4c-1.4,1.1-2.9,2.1-4.4,3c-2.6,1.6-5.3,2.9-8.1,4.1c-0.1,0.1-0.2,0.2-0.1,0.4c0.6,1.3-6.9,4-7.8,4.3
					c-1.1,0.4-2.8,0.5-3.7,1.1c-0.9,0.7-1.4,1.7-2.5,2.3c-2,1.1-4.4,1.6-6.5,2.4c-2.8,1.1-5.4,2.4-7.9,4c-0.1,0-0.2-0.1-0.3-0.1
					c-0.1,0-0.2,0.1-0.1,0.2c0.1,0,0.2,0,0.2,0.1c0,0.1,0.1,0.1,0.1,0.1c0,0,0,0,0,0c3.4,1.2,6.8,2.1,10.4,2.5c0.1,0,0.2,0,0.2-0.1
					c1.1-1.6,5.1-0.5,6.7-0.4c2.1,0.2,4.2,0.3,6.3,0.5c0.2,0,0.4-0.1,0.3-0.3c-0.7-2.6,6.1-3.8,7.6-4.3c2.1-0.7,4.1-1.3,6.2-2
					c4.4-1.4,8.9-2.8,13.3-4.3c0.2-0.1,0.2-0.3,0.1-0.4c-1.7-2.1,2-0.5,2.4-0.4c0.9,0.3,1.7,0.5,2.6,0.7c1.3,0.3,3.8,1.2,5.1,0.7
					c1.7-0.5,0.4-1.7,3.2-1.4c2.2,0.2,4.7,1.5,6.8,2.2c0.2,0.1,0.4-0.1,0.4-0.3c-0.3-1.5,3.2-0.8,3.9-1.1c0.5-0.2,0.8-0.5,1-1
					c0.3-0.7,0.1-1.4,0.3-2.1c0.7-2.3,3.6-2.3,5.5-2.7c1.5-0.3,3.9-0.6,4.7-2.2c0.4-0.8,0.3-1.6-0.2-2.2c1.5-0.4,3.1-0.7,4.6-1.3
					c1-0.4,2.9-2.6,3.8-1.8C381.1,168.2,381.5,167.7,381.3,167.5z"/>
				<path id="XMLID_63_" d="M399.6,190.3c-0.1-0.1-0.3-0.1-0.5-0.2c-5.6-2.5-8.1-1.2-15.7-2.6c-2.2-0.4-3.4-0.5-5-0.1
					c-1.2,0.4-2.3,2.1-3.1,2.2c-1.2,0.1-2.3-2.2-3.4-2.9c-1.2-0.8-2.5-0.7-3.9-0.5c-4.9,0.5-9.6,2.3-14.6,2.8
					c-2.4,0.3-4.8-0.4-7.2-0.1c-1.2,0.1-1.6,0.6-2.2,1.6c-0.9,1.4-2.6,1.4-4.3,1.8c-2.8,0.6-5.5,1.1-8.3,1.5c-2.5,0.4-5,0.7-7.5,1
					c-2.1,0.2-4.4,0.1-6.3,1.1c-0.5,0.3-1,0.7-1.5,1.1c0.2-0.2-1,1.5-0.8,1.3c-1.3,0.9-5.2-0.3-6.7-0.5c-1.4-0.2-3.3-0.6-4.6,0.2
					c-0.1,0.1-0.7,0.8-0.8,0.8c-1,0.4-2.8-0.3-3.8-0.5c-5.6-1.3-10.6-3.6-15.5-6.6c-0.2-0.1-0.4,0.2-0.2,0.3c2.4,1.7,5,3.1,7.7,4.3
					c0.6,3.1,3.6,4.1,6.3,4.8c3.7,1,6.5,3.3,10.3,3.8c4.3,0.5,8.3,0.9,12.5,2.4c1.9,0.7,3.8,1.2,4.8-0.9c0.6-1.3-0.4-1.6,1.9-1.6
					c0.8,0,1.6,0.1,2.4,0.2c2.4,0.3,4.7,0.7,7.1,1c3.9,0.6,8.1,1.6,12,1c1-0.2,2-0.4,3-0.4c1,0.1,2,0.4,2.9,0.6
					c0.7,0.1,1.4,0.2,2,0.1c1.4-0.1,2.4-0.7,2.7-0.8c3.5-1.7,14.6-0.6,14.9-1.6c0.1-0.4-0.1-0.7-0.1-0.7s-0.1-0.1-0.2-0.1
					c-4.1-2.3-11.8,0.5-11.8,0.5c-2.8,1-2.9,1.3-4.7,1.8c-2.1,0.6-3.8-0.3-5.8-0.5c-1.9-0.2-3.8,0.6-5.7,0.6c-1.8,0-3.5-0.4-5.3-0.6
					c-4-0.6-7.9-1.3-11.9-1.7c-0.8-0.1-3-0.5-3.7,0.1c-0.6,0.4-0.2,0.5-0.6,1c-1.8,2.4-1.7,2.1-3.8,1.3c-0.8-0.3-1.5-0.6-2.3-0.8
					c-1.6-0.5-3.2-0.9-4.9-1.1c-3.9-0.6-7.5-0.4-11-2.4c-3.2-1.8-9.1-1.9-10.5-5.7c3.6,1.5,7.4,2.5,11.3,3.1c0.1,0,0.3-0.1,0.4-0.2
					c0.6-2.1,4.7-1,6.1-0.8c1.9,0.2,3.8,0.5,5.7,0.7c0.2,0,0.3-0.1,0.4-0.3c0.8-3.6,5.2-3.4,8-3.7c2.2-0.2,4.4-0.5,6.5-0.8
					c4.7-0.7,9.3-1.6,13.9-2.8c0.2,0,0.3-0.2,0.3-0.4c-0.5-2.7,4.2-1.7,5.3-1.6c1.3,0,2.6,0,4-0.2c3-0.4,6-1.2,9-1.8
					c2.9-0.6,7.2-2.1,9.5,0.3c1.1,1.1,1.8,2.3,3.4,2.6c0.1,0,0.3-0.1,0.3-0.2c0.9-3.3,11.9-1.8,11.9-1.8
					C391.2,189,395.1,189.4,399.6,190.3z"/>
				<path id="XMLID_64_" d="M367.2,226.2c-0.2-1.3-5.7-1.5-7.3-1.6c-2.4-0.2-5.3,0.5-7.6-0.1c-2.2-0.6-3.6-2.7-5.9-3.2
					c-1.9-0.5-3.9-0.2-5.8,0.1c-2.7,0.4-5.2,0.9-7.9,0.7c-2.4-0.2-4.8-0.7-7.2-0.5c-3.3,0.2-6.8,1.7-8,4.9c-3.5-2.4-6.8-5-9.5-8.2
					c-2.4-2.9-4.7-5.2-8-7.1c-7.2-4.3-13.4-9-19.1-15.2c-0.2-0.2-0.4,0-0.3,0.2c5.1,6.2,11.5,10.9,18.3,15c1.6,1,3.2,1.9,4.6,3.2
					c1.9,1.7,3.2,3.8,4.9,5.7c2.6,2.9,5.7,5.3,8.9,7.5c0.2,0.1,0.6,0.1,0.6-0.2c0.3-0.9,0.6-1.6,1.1-2.1c3.3,2.7,7,5.4,10.7,7.5
					c3.2,1.8,6.8,3.1,10.5,2.9c1.3-0.1,2.8-0.6,4.1-0.2c1.2,0.4,2.5,1.5,3.6,2.2c2,1.3,3.9,2.6,5.9,3.8c1.8,1.1,4.2,1.3,5,2.3
					c0.6,0.8,0.9,0.9,1.4,1.2c0.1,0.1,0.3,0.2,0.6,0.3c0.5,0.2,0.7,0.3,0.8,0.3c0.1-0.2-0.9-1.7-2.6-2.6c-0.6-0.3-1.1-0.4-1.3-0.5
					c-2-0.7-3.7-1.7-5.5-2.9c-2-1.3-4-2.7-6.1-3.9c-0.9-0.6-1.8-1-2.9-1c-2.1,0-4,0.5-6.1,0.2c-2.7-0.5-5.2-1.6-7.6-3
					c-3.5-2.1-6.7-4.7-10.1-6.9c2.5-2.7,7.2-2.6,10.7-2.2c2,0.2,3.9,0.4,5.9,0.3c2.1-0.2,4.1-0.7,6.1-1c2.6-0.3,4.7,0,6.8,1.6
					c1.2,0.9,2.3,1.7,3.8,1.9c2.1,0.2,2-0.2,6.6-0.1c3.6,0.1,6.4,0.7,7,1.2c0.1,0,0.3,0.3,0.5,0.2
					C367.2,226.7,367.2,226.3,367.2,226.2z"/>
				<path id="XMLID_82_" d="M337.7,259.2c0,0,0.1,0,0.1,0c0.5,0.2,0.8,0.4,0.8,0.4c0,0-0.8-0.9-2.2-1.7c-0.5-0.3-0.6-0.2-1.3-0.6
					c-1.4-0.7-2-1.2-2.8-2.4c-0.6-0.8-1-1.3-1.9-1.8c-1.5-0.9-3.3-1.2-4.9-1.9c-1.7-0.8-3.3-1.8-4.7-3.1c-1.6-1.4-2.9-3-4-4.8
					c-0.6-1-1.1-2.1-2.2-2.7c-1.4-0.8-3.2-0.3-3.4,1.2c-1.8-1.4-3.4-3.2-4.5-5.3c-1.2-2.2-1.2-4.6-2.1-6.8c-0.5-1.2-1.2-1.8-2.3-2.3
					c-2.2-0.9-4.3-1.4-6.2-2.8c-3.7-2.7-6.4-6.6-9.2-10.2c-3.2-4.2-7.5-8.7-8.4-14c-0.1-0.3-0.5-0.2-0.4,0.1
					c0.4,4.7,4.1,8.6,6.7,12.1c2.9,3.8,5.6,8,9.2,11.2c1.5,1.3,3.1,2.5,4.9,3.2c0.9,0.4,2,0.5,2.9,0.9c2,1,2.4,2.9,2.8,4.8
					c1,4.1,3.4,7.6,6.8,10.1c0.2,0.2,0.7,0,0.6-0.4c1.7-1.2,2.8-1.2,3.4,0c0.2,0.3,0.5,0.7,0.7,1.1c0.3,0.5,0.5,0.8,0.8,1.3
					c0.7,1,1.5,1.9,2.3,2.8c1.7,1.7,3.6,3,5.7,4.1c1.1,0.6,2.3,0.9,3.5,1.4c0.7,0.2,1.2,0.5,1.6,0.8c1.2,0.9,1.8,1.8,2,2.2
					C332.7,257.2,334.1,258.4,337.7,259.2z"/>
				<path id="XMLID_61_" d="M330.2,277.3c-0.4-0.3-0.7-0.3-0.8-0.3c-0.8-0.2-2.8-1.1-4-2.2c-1.4-1.2-2.8-3.8-2.9-4
					c-0.1-0.2-0.3-0.2-0.4-0.2c-1.3,0.4-1.4,1.1-2.4-0.2c-0.7-1-1.1-2.6-1.4-3.8c0-0.2-0.2-0.4-0.4-0.3c-1.6,0.4-2.9,1.1-4.2,2
					c-1.3-3-2.7-6.1-4-9.1c0-0.1-0.2-0.2-0.3-0.2c-3.9,0.1-1.7-5.3-4.8-5.7c-0.3,0-0.5,0.3-0.8,0.3c-3.1,0.3-3.2-1-3.8-3.1
					c-0.3-1-0.4-2-1-2.9c-1.3-1.9-2.6-1.4-4.5-0.8c-0.6,0.5-1.2,0.4-1.8-0.2c-1,0-1.4-0.4-1.4-1.3c-0.3-0.7-0.3-1.8-0.4-2.6
					c-0.3-1.7-0.4-3.5-0.5-5.2c-0.2-2.8-0.1-5.9-2.2-8c-2.2-2.2-5.5-0.6-7.3-3.2c-1.9-2.7-2.8-7-3.6-10.2c-0.9-3.6-1.4-7.3-1.5-11
					c0-0.2-0.3-0.1-0.3,0.1c0.2,4.5,0.8,8.9,2,13.2c0.5,1.7,1.1,3.4,1.7,5.1c0.5,1.3,1,3.1,2,4.1c0.9,0.9,1.9,0.8,3.1,0.9
					c3.3,0.3,4.7,2.4,5.2,5.5c0.4,2.4,0.2,4.8,0.5,7.2c0.2,1.8,0.2,4.2,0.9,5.8c0.3,0.7,0.7,1.1,1.5,1.3c1.3,0.3,2-0.9,3.2-1
					c1.1,0.5,2.1,0.9,3.2,1.4c0.3,0.7,0.5,1.3,0.6,2c0.2,0.8,0.3,1.6,0.7,2.3c0.5,0.8,1.2,1.6,2.2,1.8c0.7,0.2,0.7,0,1.4-0.1
					c0.2-0.1,0.5-0.2,0.6-0.4c1.2-0.1,1.8,0.5,1.7,1.8c0.3,1.1,0.6,2.2,1.5,3c0.7,0.6,0.6,0.2,1.3,0.7c0.9,0.6,1.1,1.4,1.5,2.4
					c1,2.3,2,4.6,3,7c0.1,0.2,0.4,0.3,0.6,0.1c0.8-0.6,1.8-1.5,2.8-1.7c2-0.4,0.9,0,1.6,0.9c0.8,1.1,1.2,2.6,1.9,3.7
					c0.1,0.2,0.3,0.1,0.5,0c1.3-1,1.7-0.7,2.4,0.5c0.6,0.9,1.3,1.7,2.1,2.4c0.9,0.8,1.2,0.7,5.1,2.7c0.3,0.1,0.7,0.4,0.8,0.3
					C330.9,278,330.6,277.6,330.2,277.3z"/>
				<path id="XMLID_83_" d="M311.1,280.8c-1.1-2-0.9-1.7-1.3-2.4c-0.3-0.6-0.8-2.1-1.4-2.4c-0.8-0.6-2.4-0.8-3.3-1.2
					c-2.1-0.8-4.1-1.7-6-2.8c-1.4-0.8-2.9-1.7-4.2-2.7c-1.3-1-2-2-2.4-3.5c-0.1-0.5-0.2-1.1-0.4-1.6c-0.3-0.6-0.6-1.1-1.1-1.5
					c-0.9-0.6-2.1-0.6-3.1-1.2c-0.7-0.4-1.2-1-1.7-1.6c-2-2.6-2.7-5.9-4-8.8c-1.4-3.2-3.3-6-5.3-8.8c-2.6-3.6-2.2-7.2-3.1-11.3
					c-0.3-1.4-0.7-2.7-1.5-3.9c-1.2-1.8-3.5-3.2-3.1-5.6c0.1-0.4-0.6-0.5-0.7-0.1c-0.5,3.1,2.9,4.9,4,7.4c1.6,3.5,0.7,7.6,2.2,11.1
					c1.5,3.5,4.4,6.4,6.2,9.9c1.5,3.1,2.3,6.5,4.1,9.4c0.6,0.9,1.2,1.8,2.1,2.5c1.5,1.2,3.8,1.2,4.7,3.2c0.5,1.1,0.3,2.1,1.1,3.2
					c0.9,1.3,2.6,2.2,3.9,3.1c3.2,2,6.5,3.2,9.9,4.7c2,0.9,3.2,2.6,4,4.8c0.4,1.2,0.5,2.5,1.6,4.1c0.7,1,1.6,2,1.8,1.9
					c0.1,0,0-0.2-0.7-1.8C312.3,283,311.5,281.5,311.1,280.8z"/>
			</g>
		</g>
		<path id="XMLID_33_" d="M387.8,64.2c-1.5-3.5-4.7-5.1-6.7-6.1c-4.5-2.2-8.6-2.2-11.8-2.1c-3.2,0.1-7.2,0.2-11.5,2.5
			c-3.2,1.7-5.5,4.1-7,5.7c-2.2,2.3-2.7,3.5-5.1,5.9c-2.1,2.1-4,3.6-5.4,4.5c1.2-1.9,2.9-4.7,5-8.3c1.3-2.3,1.7-3.1,2.2-3.8
			c1.6-2.7,4.7-6.3,10.7-9.6c-1-1.5-2.1-2.5-3-3.1c-5.4-3.3-14.5-0.4-22.9,7.1c-1.1-5.8,0-8.1,1.2-9.1c2.1-1.7,5.2,0,7.9-2
			c1.7-1.3,2.3-3.4,2.6-4.9c-1.2-0.6-7.9-4.1-14.7-1.3c-4.5,1.9-6.9,5.7-8.6,8.4c-1.1,1.7-2.5,3.8-3.1,6.8c-0.4,1.8-0.4,3.5-0.6,3.5
			c-0.3,0-0.5-2.3-0.7-3.6c-0.3-3,0-4.5-0.1-5.3c-0.1-2-2.5-4.7-12.8-7.8c-0.5,0.5-1.1,1.4-1.6,2.5c-1.2,3-0.2,5.5,0.2,9.1
			c0.2,1.8,0.3,4.4-0.2,7.6c0.2-1.6,0.8-8.2-3.7-14.5c-3.9-5.5-9.2-7.3-10.9-7.9c-0.2,0.1-0.4,0.4-0.6,0.7c-2.2,2.8,0.8,6.9-0.1,11
			c-0.6,2.7-1.6,5.4-3.1,7.9c-0.3-0.9-0.6-2.2-0.5-3.9c0.1-2.2,0.9-3.8,1.4-4.7c-2.6-0.3-4.5,0.2-5.7,0.7c-5.2,2.2-8.5,8.6-8.4,16.2
			c-0.2-1-0.4-2.1-0.6-3.4c-0.2-2.4-0.1-4.6,0.1-6.4c-3.1,1.3-4.7,3.1-5.5,4.3c-3.6,5-3,12.8,1.6,19.6c-1.7-1.4-5.1-4.5-7-9.6
			c-1.2-3.2-1.4-6-1.3-7.9c-0.2,0.1-0.4,0.3-0.7,0.6c-3.6,2.9-5.1,6.6-5.5,7.6c-0.6,1.7-1.3,5.5,3.4,13.3
			c5.8,9.9,14.4,16.7,21.6,21.1c-3.6-0.1-11.2-0.9-19.2-5.7c-8-4.8-12.3-11.1-14.1-14.2c-1,0.7-2.1,1.7-2.7,3.3
			c-2,5.4,4.3,12,6.4,14.3c0,0,7.6,8,20.9,10.5c-1,0.7-2.2,2.3-2.9,3.2c-1,1.4-1.7,3-2.1,4.8c0,0,0,0,0,0c0,0,0,0,0,0
			c0,0.1,0,0.1,0,0.1c-0.1,0.7,0.9,0.9,1.1,0.3c-0.4,1.3,0.2,2.5-0.4,3.9c-0.4,1-0.9,2-1.3,2.9c-1.1,2.3-2.4,4.5-3.7,6.7
			c-2.3,3.8-5,7.3-8,10.6c-3.1,3.5-6.6,6.7-10.4,9.5c-3.8,2.9-8.2,6-12.9,7.3c-11.9,3.2-16.2-14.6-18.6-23
			c-2.6-9.1-5.3-17.8-11.4-25.3c-5.9-7.2-13.4-13.5-20.8-19.1c-7-5.2-14.8-9.6-23.5-11.5c-10.1-2.3-20.4-1.3-30.6-2.1
			c-10-0.8-19.5-3.9-29.4-5.1c-8.8-1.1-17.7-0.5-25.5,4.1c-6.2,3.6-11,9.5-11.6,16.8c-6.9,0.3-10.7,7-11.2,13.4
			c-0.1,1.8-0.1,3.7,0.1,5.5c0.1,1.2,0.4,2-0.5,2.8c-0.5,0.4-1.4,0.7-1.9,1.1c-2.8,2-4.9,4.9-6,8.2c-0.5,1.5-0.8,3.1-0.8,4.6
			c0,0.5,0.3,1.9,0.1,2.2c-0.2,0.4-1,0.4-1.5,0.6c-3,1.1-5,3.8-6.2,6.7c-1.5,3.7-1.3,7.9-1.7,11.8c-0.5,4.9-2.8,8.6-4.5,13.1
			c-1.2,3.1-1.5,6.3,0.2,9.3c1.2,2,3,3.4,5.3,3.4c-0.6,1-2.9,5-3.9,9.5c-0.6,2.9-0.7,5.7-0.7,5.7c0,0.6,0,1.2,0,1.6
			c1.4-0.4,2.9-0.8,4.3-1.1c-3,3.8-4.3,9.1-1.7,13.4c2.3,3.7,7.2,5.2,11.1,3.6c-1.2,3.2-0.6,6.9,2,9.3c2.9,2.7,7.2,2.7,10.4,0.6
			c0.2,3.5,0.4,7,0.6,10.6c0,0.3,0.3,0.4,0.5,0.5c3.3,0.8,6.4,0.5,9.5-0.7c-1.5,6.9,5.8,12.2,11.9,8.7c0.1,3.4,0.6,7.3,3.7,9.2
			c2,1.2,4.6,1.2,6.3-0.3c1.1,4.1,4.1,7.2,7.1,10.2c3.9,3.9,7.8,7.8,11.8,11.7c7.9,7.6,16,15,24.2,22.2c8.5,7.4,17.2,14.6,26,21.5
			c2.9,2.3,6.3,4.9,10.3,4.5c2.2-0.2,4.2-1.3,5.3-3.1c0.2,1.2,0.4,2.3,0.6,3.5c0,0.3,0.3,0.4,0.5,0.5c4.2,0.9,8.1-2.1,8.8-6
			c1.1,0.4,2.6-0.2,3.3-1.4c1.2-2.3,1.3-5.6,1.4-8.1c0.2-3.2,0-6.4,0-9.6c-0.1-6,0-12.3,2.9-17.7c1.2-2.3,3-4.3,5.1-5.7
			c-9.2,29.1-8.1,60-4.3,90c2.1,16.3,4.3,32.9,7.9,49c1.8,8.1,4.5,16,7.9,23.5c1.6,3.6,3.5,7,5.4,10.4c1.6,2.8,3.4,6.4,5.9,8.5
			c2.8,2.2,5.9,1.3,9,0.4c3.3-0.9,7.7-1.4,10.5-3.4c2.5-1.7,2.5-4.5,2.2-7.2c-0.4-4-0.9-8.1-1.3-12.1c3.6,7.6,9,15.5,18.4,14.4
			c1.8-0.2,3.7-0.9,5.1-2c2-1.5,1.9-2.7,1.9-5.1c-0.1-4.1-0.9-8.1-2.5-11.9c4.9,4.4,12.2,5.8,18.1,2c5-3.2,7.2-8.4,6.7-13.5
			c0.9,1.4,2.1,2.4,3.5,3.2c5.1,2.6,10.7,0.5,15.4-1.8c4.5-2.2,9.8-4.7,12.3-9.3c1.4-2.6,1.7-5.7,0.7-8.3c1.2,0.4,2.6,0.5,4,0.2
			c3.5-0.8,5.8-3.9,7.5-7c1.9-3.4,3.5-6.9,2.3-10.8c-1.3-4.3-4.8-7.8-7.5-11.3c-13.4-17.3-25.3-35.7-35.6-55
			c-5.5-10.5-10.6-21.2-15.1-32.2c1.7,1.3,3.3,2.2,6.3,3.9c0,0,5.3,3,6.1,2c0.2-0.3,0-0.9,0.4-1.2c0.3-0.3,0.6,0,1.4,0
			c0.3,0,1.5,0,2.4-0.7c0.6-0.5,0.5-0.9,1-1c0.6-0.2,1.1,0.3,1.6-0.1c0,0,0.4-0.2,0.4-0.5c0-0.3-0.7-0.5-0.7-0.6
			c0-0.2,1.3,0.1,1.4-0.2c0.1-0.3-1.3-1-2.7-2.4c-1.5-1.4-2.3-2.7-2.7-3.5c-0.9-1.5-1.3-2.8-1.6-3.6c-1-2.9-1.7-5.8-3.1-8.6
			c-2.1-4.2-5.2-7.7-9.1-10.3c8.1-7.9,11.5-19.2,15.4-29.6c2.3-6.1,4.4-12.2,6.3-18.4c0.9-3,1.9-6,2.7-9c0.4-1.3,0.6-2.6,1.1-3.9
			c0.8-1.9,2-2.9,3.5-4.2c3.8-3.4,4.9-8.6,5.5-13.4c0.2-1.6,0.2-3.4,0.7-5c0.5-1.7,1.7-3,2.8-4.3c3.9-4.6,6.4-5.4,7.6-8.9
			c0.1-0.3,0.2-0.8,0.3-1.1c0.5,0.2,7.9,3.4,13.2-0.6c0.8-0.6,1.9-1.7,2.8-3.4c-0.3,0.2-0.7,0.4-1.3,0.5c-2,0.3-3.6-1.6-3.9-2
			c-0.4-0.4-0.9-1.2-1.2-2.5c0.3,0.1,0.7,0.2,1,0.3c4.7,1,5.3,1.4,6.2,2c0.9,0.5,1.7,1,2.3,2c1.1,1.7,0.9,3.9,0.8,5.5
			c-0.1,1.6-0.4,2.6-0.1,2.7c0.4,0.2,1.3-1.2,1.5-1.6c3.7-5.6,3.5-12.5,3.5-12.5c-0.3-9.6-7-16.4-8.6-18c6-4.9,8.9-9.7,10.5-13.2
			c3.3-7.3,4.5-14.7,5.9-22.5c0.8-4.6,2.3-8.6,4.7-12.6c1.5-2.5,4.3-6.8,9.2-9c5.5-2.4,13.2-1.8,17.2,2.7c2,2.2,4.1,6.5,2.8,8.7
			c-0.2,0.3-0.6,0.8-0.5,0.9c0.2,0.2,2.7-1.2,3.6-2.8c1.4-2.6-0.4-7.1-4.6-10.7c1.4,0.8,2.8,1.3,4.2,1.2c2.8-0.1,4.8-2.7,5.4-4.9
			C389,67.1,388.2,65.2,387.8,64.2z"/>
		<g id="XMLID_31_">
			<g id="XMLID_60_">
				<path id="XMLID_84_" class="st5" d="M286.4,285.3c-0.1,0.2-1.5-0.3-1.6,0c-0.1,0.2,1.2,0.9,1.1,1.2c-0.1,0.2-1.1-0.3-2.2,0.1
					c-1,0.4-0.8,1.2-1.8,1.6c-1.2,0.5-2.4-0.6-3,0c-0.4,0.4-0.1,1.1-0.5,1.4c-0.7,0.5-2.4-0.7-2.6-0.8c-3.8-2.6-8.1-4.7-11.6-7.7
					c-2.7-2.4-7.2-5.3-14.6-6.8c1.4-1.3,2.6-2.8,3.8-4.3c3.9-4.5,8.8-7.9,13.2-11.8c0,0,0.1-0.1,0.1-0.1c4.8,3.3,8.4,7.9,10.2,13.4
					c1.7,5.2,3.3,9.6,7.8,12.7C286.1,284.9,286.4,285.2,286.4,285.3z"/>
			</g>
		</g>
		<g id="XMLID_30_">
			<g id="XMLID_58_">
				<path id="XMLID_59_" class="st2" d="M209.6,314.1c0.8-0.4,0.1-0.6,1.4-0.8c1.3-0.2,1.2,0.3,2.1,1c0.6,0.5,1.1,0.8,1.7,1.1
					c0,0,0.6,0.3,1.5,0.3c0.1,0,0.2,0,0.3,0c1.3-0.1,5.5-2.6,6.1-3.6c0.2,0,0.4-0.2,0.5-0.4c0.7-1.7-1.9-4.6-2.7-6
					c-1.5-2.7-2.4-5.3-2.6-8.1c3.7-1.3,7.1-3.2,10.2-5.7c4.6-3.7,7.5-9.3,12.6-12.5c2.4-1.5,5.1-2.4,7.4-4.1
					c0.2-0.1,0.3-0.3,0.5-0.4c8.7,2.9,13.6,5.6,16.5,7.8c8.9,22.1,18,38.9,24.7,50.2c7.1,12,11.1,17.7,14.4,22.3
					c5.2,7.5,10.9,14.5,16.3,21.9c1.9,2.6,3.8,5.7,3.4,9c-0.3,2.5-1.7,5-2.9,7.1c-2,3.5-7.2,7.9-10.9,5.1c-0.4-0.6-0.9-1.2-1.6-1.7
					c-0.6-0.5-1.1,0.3-0.8,0.9c0.4,0.7,0.9,1.2,1.5,1.6c3,4.3-0.3,10.1-4.2,13c-4,3-9.5,5.8-14.3,6.9c-2.8,0.6-5.9,0.5-8.4-1.1
					c-2.2-1.4-3-3.4-3.7-5.9c-0.7-2.3-1.3-4.7-4-5.1c-0.5-0.1-0.8,0.6-0.5,1c5.7,6.7,4.9,16.6-3.1,21.1c-6.7,3.8-15.1,0.7-19-5.6
					c-0.1-0.2-0.3-0.5-0.4-0.7c-0.4-0.6-1.4-0.2-1.1,0.5c2.4,4.1,4.1,8.6,4.6,13.4c0.3,2.5,0.8,5.4-1.3,7.2
					c-1.6,1.4-4.2,1.9-6.3,1.8c-9.4-0.3-13.7-9.7-16.9-17.2c-0.3-0.6-1.2-0.3-1.1,0.3c0.4,3.8,0.8,7.6,1.3,11.4
					c0.2,1.8,0.5,3.6,0.6,5.4c0.3,3.7-1.3,5.4-4.7,6.4c-3.2,1-6.6,2.1-9.9,2.7c-2.8,0.5-4.6,0.1-6.6-2.2c-1.5-1.7-2.7-3.9-3.9-5.9
					c-7.8-13-12.7-27.2-15.4-42.2c-5.1-28.3-9.9-57.4-9.2-86.2c0.4-15.6,2.6-31,7.5-45.9c2.2-1.1,4.7-1.6,7.2-1.2
					c-2.9,3.3-4,6.4-4.6,8.3c-2.4,8.5,1.5,16.3,4.3,21.8c1.5,2.9,2.7,4.5,4.5,6.9c0,0,3.3,0.7,7,6.2c0.1,0.2,0.4,0.2,0.5,0.2
					C209.1,314.6,209.1,314.4,209.6,314.1z"/>
			</g>
		</g>
		<path id="XMLID_178_" class="st4" d="M295.8,342.7c-1.7-2.7-3.6-5.9-5.9-9.6c-6.7-11.3-15.7-28.1-24.7-50.2
			c-2.9-2.2-7.8-4.9-16.5-7.8c-0.2,0.1-0.3,0.3-0.5,0.4c-2.3,1.7-5,2.6-7.4,4.1c-5,3.2-7.9,8.8-12.6,12.5c-3.1,2.5-6.5,4.4-10.2,5.7
			c0.2,2.8,1.1,5.5,2.6,8.1c0.8,1.4,3.4,4.2,2.7,6c-0.1,0.2-0.3,0.4-0.5,0.4c-0.6,1-4.8,3.5-6.1,3.6c-0.1,0-0.2,0-0.3,0
			c-0.9,0-1.5-0.3-1.5-0.3c-0.6-0.2-1.2-0.6-1.7-1.1c-0.9-0.8-0.9-1.2-2.1-1c-1.3,0.2-0.5,0.3-1.4,0.8c-0.5,0.3-0.5,0.4-1.2,0.6
			c-0.2,0-0.4,0-0.5-0.2c-3.6-5.4-7-6.2-7-6.2c-1.8-2.4-3-4-4.5-6.9c-2.7-5.5-6.7-13.3-4.3-21.8c0.5-1.9,1.7-5,4.6-8.3
			c-2.5-0.5-5,0-7.2,1.2c-4.9,14.8-7.1,30.3-7.5,45.9c-0.3,13.9,0.6,27.9,2.2,41.8c-0.7,10,5.3,18.1,12.8,19.6
			c6.9,1.3,12.5-3.6,13.3-4.3c3.2,8.8,10.9,13.8,17.7,12.7c4.9-0.8,8-4.6,9-6c2.4,6.1,7.9,10.3,14.3,11c6.2,0.7,12.4-2.2,16-7.3
			c6.6,0.4,12.8-2.8,16-8.3c4.3-7.4,1-14.9,0.7-15.7c0.6-0.1,7.5-0.8,11-7C298.2,349,296.1,343.4,295.8,342.7z"/>
		<g id="XMLID_28_">
			<g id="XMLID_47_">
				<path id="XMLID_51_" class="st6" d="M377.7,75.7c-4.8-4.8-14.7-4.4-21-0.1c-3.1,2.1-4.7,4.7-6.4,7.6c-3.7,6.1-5,11.8-5.5,15.5
					c-1.9,0.4-4.8,1.3-7.9,3.3c-2.4,1.6-4.1,3.4-5.3,4.7c0-0.8-0.3-2.4-1.5-3.3c-1.8-1.3-4.6-0.3-5.1-0.1c-1.6,0.5-2,1.3-2.8,1
					c-0.5-0.2-0.8-0.7-1.6-2.8c-0.3-1-0.8-2.4-1.2-4c-1.2,0.6-3.4,1.9-5.2,4.4c-1.3,1.8-2,3.5-2.3,4.7c-3.6-1.3-9.9-3.9-13.2-1.4
					c-1.4,1.1-1.6,3.1-0.6,4.2c-3.9,0.4-7.6-1.8-11.5-0.2c-2.7,1.1-4.9,2.8-7.8,3.6c-3.4,0.9-6.2,0.7-8.8,0.5
					c-2.8-0.3-11.6-1.2-20-7.8c0,0-5.2-4.1-8.5-10.8c-0.8-1.7-1.4-3.4-0.9-5.2c0.3-1.1,1-1.9,1.4-2.4c2,3.2,6,8.8,13.1,13.1
					c9.7,6,19.3,6.1,23.1,5.9c-0.4-0.2-1-0.6-1.7-1.1c-3.7-2.4-6.2-4.7-7.7-6.1c-5.8-5.3-8.6-8-10.4-10.4
					c-3.3-4.5-8.3-11.1-6.3-17.7c1-3.1,3.2-5.2,4.8-6.4c-0.1,2-0.3,7.7,3.5,12.6c2.7,3.5,6.8,5.7,7,5.4c0.1-0.1-0.4-0.7-0.9-1.3
					c-2.9-3.7-3.3-8-3.4-9.4c-0.2-1.7-0.4-4.4,0.7-7.6c1.4-3.6,3.8-5.7,5-6.6c-0.3,1.7-0.6,4.2-0.3,7.2c0.3,3.5,1.4,7.1,1.9,7
					c0.3,0,0.2-1.8,0.3-3.9c0.2-3.4,0.5-11.1,5.2-15c1-0.8,3-2.2,6.7-2.5c-0.7,1.9-1,3.4-1.1,4.5c0,0,0.3,3.3,0.9,5
					c0.1,0.4,0.8,0.7,1.1,0.2c4.5-6.9,4.1-10.4,4.1-10.4c-0.2-3.5-1.9-4.8-1-8.1c0.2-0.9,0.6-1.7,0.9-2.1c1.6,0.7,8.2,3.8,11.5,10.7
					c2,4.2,2.2,8.5,2.2,9.2c0,1.5-0.1,2.7-0.2,3.6c0.5-0.6,1.1-1.5,1.5-2.7c0.4-0.9,0.7-2.3,0.7-4.9c-0.1-4.4-1.2-5.3-0.7-8.1
					c0.3-1.7,1-3.1,1.5-3.8c8.5,2.1,10.9,4.8,11.3,7c0.4,1.8-0.3,4.9,1.4,8.9c0.2,0.5,0.4,0.9,0.6,1.2c0.2-2.7,1-7.6,4.1-12.6
					c1.4-2.3,3.2-5.2,6.6-7c6.6-3.6,14-0.3,15.4,0.3c-0.3,1-1,2.4-2.3,3.5c-2.8,2.4-6.1,0.9-8.3,2.5c-1.6,1.1-2.8,3.9-1.3,11.4
					c0.5-0.5,1.3-1.3,2.3-2.1c2.6-2.1,5-4.2,8.4-5.5c2.1-0.8,6.6-2.7,11.2-0.8c1.8,0.7,3.1,1.8,3.9,2.6c-1.7,0.8-4.1,2.2-6.4,4.4
					c-2.5,2.4-4,4.8-5.5,7.3c-3.2,5.3-3,7.2-6,10.2c-1.7,1.7-3.4,2.8-3.3,2.9c0.1,0.2,3.1-1.4,5.4-2.8c8.6-5.5,8.8-10.9,15.5-14.9
					c4.2-2.4,8.1-2.7,10.5-2.9c6.6-0.5,16.9,1.1,19.6,7.3c0.1,0.3,1.8,4.3-0.2,7.1c-0.1,0.2-1.4,1.9-3.5,2.1c-0.4,0-1.2,0.1-3.2-0.7
					c-2.5-1-3.1-1.8-5.1-2.7c-2.5-1.2-4.9-1.6-4.9-1.4c-0.1,0.3,4.8,1.5,9.4,5.6c1.5,1.4,3.4,3.4,3.8,6.2c0.1,0.7,0.3,1.9-0.4,3.1
					c-0.7,1.2-1.8,1.8-2.3,2c0.2-0.4,0.4-1,0.4-1.8C381.7,79.6,378.2,76.2,377.7,75.7z"/>
			</g>
		</g>
		<g id="XMLID_25_">
			<g id="XMLID_52_">
				<path id="XMLID_55_" class="st7" d="M337.5,149.3c0.4,6.8-2.4,11.7-3.5,13.4c0.2-0.9,1.3-6.3-1.7-9c-1.3-1.2-3.5-1.9-4.5-2.2
					c-2-0.6-2.6-0.4-4.3-1.1c-1-0.4-2.6-1.1-3.9-2.6c0,0-2-2.4-1.6-5.9c0.4-4.3,5-8.3,11.6-9.7c1.2,1.6,2.4,3.3,3.6,4.9
					C334.5,139,337.2,143.2,337.5,149.3z"/>
				<path id="XMLID_54_" class="st8" d="M323.8,154.3c1.7,1.9,3.9,2,4.4,2.1c-0.5,0.7-1.5,1.8-3.2,2.6c-1,0.5-1.8,0.6-2.8,0.8
					c-1.3,0.2-4,0.6-6.9-0.6c-0.9-0.4-1.4-0.6-1.8-1.1c-1.6-1.9,0.1-5.3,0.3-5.7c1-2.1,3.1-4.4,4.7-4c0.4,0.1,0.4,0.3,1.6,1
					c0.9,0.6,1.7,1,2.3,1.3C322.3,151.3,322.5,152.9,323.8,154.3z"/>
			</g>
		</g>
		<g id="XMLID_24_">
			<g id="XMLID_49_">
				<path id="XMLID_50_" class="st9" d="M330.9,106.8c-0.1,0.6,0.6,1.1,1,0.5c3.1-4.1,7.4-6.8,12.4-7.9c0.2,0,0.3-0.1,0.4-0.3
					c-0.3,2-0.9,4.8-1.7,8.1c-1.3,5.1-2.1,8.6-4.3,12.9c-0.7,1.3-2.8,5.5-6.2,8.7c-1.9,1.8-3.5,2.7-4.1,3c-1.5,0.8-2,0.8-3.2,1.3
					c-0.8,0.4-4.9,2.1-6.7,6.2c-0.3,0.6-1.4,3.5-0.5,6.8c0.2,0.6,0.4,1.2,0.6,1.5c-0.7,0.2-2.7,0.8-4.3,2.7
					c-0.4,0.5-1.9,2.3-1.9,4.9c0,1.5,0.4,2.7,0.8,3.3c-0.3,0.9-0.7,2.2-1.6,3.5c-0.5,0.7-1,1.3-1.4,1.7c-1,0.7-2.4,1.7-3.9,3.2
					c-1.2,1.2-3.4,3.2-4.4,6.2c-1.5,4.7-0.7,9.7-3,14.2c-1.3,2.6-3.5,3.8-5.2,5.9c-1.5,1.8-1.9,4.2-2.5,6.4c-1.7,6-3.6,12-5.7,18
					c-2,6-4.2,11.8-6.5,17.7c-2.3,5.6-4.3,11.7-8,16.6c-1.2,1.6-2.6,3.1-4.1,4.5c-4,3-7,5.7-9,7.5c-6.8,6.5-7.2,8.8-12.3,11.8
					c-3.3,1.9-4.8,2-7.6,4.5c-2.1,1.9-3.8,4.2-5.7,6.3c-3.9,4.4-8.7,7.7-14.1,9.8c0-0.6,0.1-1.5,0.2-2.7c1.1-13.2,3.1-17,3.9-18.3
					c0.4-0.8,1.2-2,2.3-3.3c-0.6,0.4-1.4,1.1-2.3,2c-3.6,3.9-3,7.8-5,18.9c-0.1,0.8-0.5,2.6-0.3,5c0.2,2.2,0.6,3.7,0.7,4.1
					c0.2,0.7,0.5,1.5,2,4.2c0.4,0.7,2.3,3.3,2.6,4.6c0.2,0.5,0.1,0.8,0,0.9c-0.2,0.2-0.8,0.1-1,0.4c0,0,0,0.1,0,0.1
					c0,0.1,0,0.2,0.1,0.3c0.5,1.2-3.4,1.8-4,1.9c-1.7,0.1-2.7-0.8-4-1.7c-0.7-0.5-1.3-1.3-2.3-1.2c-1.1,0.1-1.6,1.6-2.6,1.4
					c-0.3,0-1.2-1.3-1.6-1.7c-1.2-1-2.1-1.6-2.5-1.9c-2-1.2-14-13.4-11-28.3c0.4-2.3,1.5-5.8,4.2-9.7c0.2-0.3,0.5-0.7,0.7-1
					c-1.2-0.2-3-0.3-5.3,0.1c-0.3,0.1-2.3,0.5-4.4,1.7c-4.6,2.7-6.6,7.6-7.3,9.1c-2.1,5.1-1.9,9.9-1.7,14.5c0.1,1.8,0.1,4.2,0.2,9
					c0,0,0,0.8-0.2,4.3c-0.2,3-0.3,4.1-1.2,5c-0.3,0.3-1.1,1.3-2.2,1.1c-1.1-0.2-1.6-1.3-1.7-1.4c0.2,0.5,0.4,1.3,0.3,2.2
					c-0.4,3.3-4.1,4.7-4.6,4.9c-0.7,0.3-2.3,0.9-3.1,0.1c-0.3-0.3-0.4-0.7-0.5-1.4c-0.2-1-0.3-2.3-0.5-3.9c-0.1,0.4-0.2,0.8-0.3,1.2
					c0,0-0.5,1.2-2,1.9c-3.8,2.1-11.4-2-11.4-2c-3.5-2.5-6.8-5.3-10.2-8.1c-7.3-5.9-14.5-12-21.5-18.3c-7.2-6.3-14.2-12.8-21-19.5
					c-3.3-3.2-6.3-6.7-9.9-9.7c-2.1-1.8-5.3-4.4-7-9c-0.4-1.1-0.7-2.1-0.8-2.7c-0.3,0.3-2.6,2.4-5.1,1.7c-1.3-0.3-2.1-1.2-2.6-1.9
					c-2.5-3-2.2-6.9-2.1-8.3c-0.6,0.2-1.4,0.3-2.4,0.5c-1.2,0.1-4.2,0.5-6.2-0.4c-2.6-1.2-4-4.7-4-8.6c-1.4,0.5-3.9,1.3-6.9,0.8
					c-1-0.1-1.9-0.4-2.6-0.7c-0.2-2.2-0.1-3.9,0-5.1c0-0.7,0.1-1.2,0-2.1c0-1.6-0.2-2.9-0.4-3.7c-1,0.5-2.8,1.3-5.2,1.4
					c-1.5,0-3.4,0.1-5.2-1.1c-2.4-1.7-2.9-4.6-3-5.4c-0.4-2.7,0.6-4.8,1-5.6c-0.7,0.6-2,1.5-3.8,1.7c-3.5,0.4-6.5-2.3-7.7-4.5
					c-2-3.7-0.9-9,3.1-12.7c-0.4-0.1-0.9-0.1-1.3-0.1c-1.7,0-3.2,0.2-4.4,0.5c0.4-2.7,1.2-6.1,2.6-9.7c0.9-2.3,1.9-4.3,2.9-6
					c-1,0-2.6,0-4-1.1c-3-2.1-2.7-6.7-2.6-8.4c0.3-5.4,2.9-5.7,4.6-11.8c1.4-5-0.1-5.9,1.7-13.1c0.8-3.3,1.8-5.7,4-7.3
					c1.4-1.1,3-1.5,4-1.7c-0.4-2.3-0.3-4.1-0.1-5.2c0.1-0.9,1.1-6.7,6.1-9.9c1.3-0.9,2.6-1.3,3.4-1.5c-0.4-1.6-0.9-4.1-0.7-7.1
					c0.1-2.1,0.6-10.5,6.2-13.3c1-0.5,2.6-1,4.9-0.8c0-1.5,0.2-2.8,0.5-4c2.2-8.7,10.9-12.9,13.2-14c12.7-0.6,20.5,1.4,24.9,3.1
					c1.4,0.5,5.2,1.8,9.2,3.8c3.5,1.8,6.9,3.9,10.7,4.8c6.9,1.7,13.7-1.3,20.5-2.3c8-1.2,15.8,1.7,22.8,5.3
					c12.4,6.4,22.9,16.3,30.5,28c3.8,5.9,6.9,12.3,9.1,19.1c2.2,6.9,2.4,14.5,4.9,21.3c2.8,7.6,10.5,12.9,16.3,18.1
					c6,5.4,9.2,7.2,11.8,6.3c1.8-0.7,2.8-2.4,3.4-3.9c-0.3,0.5-0.9,1.1-1.8,1.7c0,0-1,0.7-2.2,1c-2.5,0.7-6.6-2.6-8.9-4.7
					c-3-2.7-6-5.4-9-8.1c-2.9-2.7-5.9-5.5-7.7-9c-2-4.1-2.4-8.7-3.2-13.1c-2.2-12.5-7.5-24.3-15.1-34.4c-7.5-10-17.3-18.3-28.4-23.9
					c-6-3-12.6-5.5-19.5-5.3c-7.4,0.3-14.7,4.1-22.2,2.8c-4.2-0.8-7.8-3.1-11.5-5c-3.6-1.8-7.3-3.3-11.2-4.4
					c-6.8-2-13.8-2.7-20.9-2.5c9.2-3.6,19.2-2.3,28.7-0.4c5.2,1,10.3,2.3,15.5,3.1c5.4,0.8,10.9,1,16.4,1.1
					c10.8,0.2,21.3,0.9,31.2,5.7c9.1,4.5,17.1,11.1,24.5,18c4.3,3.9,8.3,8.2,11.4,13.1c3,4.9,4.9,10.3,6.5,15.8
					c2.5,8.6,4.5,19.5,11.4,25.8c6.5,6,15.5,0,21.3-4.1c8.3-5.8,15.4-13.4,20.7-22c1.3-2.1,2.5-4.3,3.6-6.6c0.8-1.6,2.4-4,2.4-5.8
					c0-0.8-0.7-2-1.4-2.5c0.4-1.3,1-2.5,1.7-3.6c1.3-1.7,3.3-1.8,3.4-3.1c0-0.2,0-0.3-0.1-0.5c0.6,0.1,1.2,0.2,1.7,0.2
					c2.1,0.2,4.6,0.5,7.7-0.3c2.2-0.6,4.9-1.7,6-2.3c3-1.7,5.4-2.3,8.9-1.7c4.4,0.9,6.3,0.9,6.7,0.2c0.3-0.6-1.3-1.4-1.1-2.8
					c0.1-1.2,1.5-2.1,2.5-2.5c2-0.7,4.2,0.1,8.7,1.9c1,0.4,1.7,0.7,2.3,0.9c0.2-0.3,0.5-0.8,0.9-1.4c1.8-3,2-3.6,2.5-4.3
					c0.7-0.9,1.8-2.1,3.8-3.2c0.7,5,1.7,6.3,2.7,6.5c1.2,0.2,1.8-1.5,4.2-1.9c2.1-0.3,4.1,0.6,4.6,1.6
					C331,105.5,331,106.1,330.9,106.8z"/>
			</g>
		</g>
		<path id="XMLID_181_" class="st10" d="M265.2,282.8c-2.9-2.2-7.8-4.9-16.5-7.8c-0.2,0.1-0.3,0.3-0.5,0.4c-2.3,1.7-5,2.6-7.4,4.1
			c-5,3.2-7.9,8.8-12.6,12.5c-3.1,2.5-6.5,4.4-10.2,5.7c0.2,2.8,1.1,5.5,2.6,8.1c0.8,1.4,3.4,4.2,2.7,6c-0.1,0.2-0.3,0.4-0.5,0.4
			c-0.6,1-4.8,3.5-6.1,3.6c-0.1,0-0.2,0-0.3,0c-0.9,0-1.5-0.3-1.5-0.3c-0.6-0.2-1.2-0.6-1.7-1.1c-0.9-0.8-0.9-1.2-2.1-1
			c-1.3,0.2-0.5,0.3-1.4,0.8c-0.5,0.3-0.5,0.4-1.2,0.6c-0.2,0-0.4,0-0.5-0.2c-3.6-5.4-7-6.2-7-6.2c-1.8-2.4-3-4-4.5-6.9
			c-2.7-5.5-6.7-13.3-4.3-21.8c0.5-1.9,1.7-5,4.6-8.3c-2.5-0.5-5,0-7.2,1.2c-1.3,3.8-2.3,7.7-3.2,11.6c0.6,2.2,1.3,4.6,2,7
			c3.5,11.5,7.7,16.3,5.3,20.3c-2.1,3.4-6.7,2.3-11.4,3.6c0,1.1-0.1,2.3-0.1,3.4c-0.3,12.7,0.4,25.3,1.8,38c5.3,1.5,11,2.7,11.7,1.2
			c0.7-1.5-4.8-3.9-5.3-8.3c-0.6-5.7,8-10.8,16.5-16c6.9-4.2,12.9-6.3,24.8-10.5c10-3.6,14.9-4.6,17.3-2.3c0.9,0.9,1.6,2.6,1.3,4
			c-0.9,3.1-6.6,3.3-6.5,4.3c0.1,1.1,9.3,3.3,13.8-1c1.5-1.5,1.6-2.8,4.3-5c1.7-1.4,3.5-2.9,5.5-2.5c2.2,0.4,3.6,2.9,4,4.8
			c0.9,3.7-1.8,6.3-1,7.3c0.8,1,4.5,0,15.6-6.6c-3.3-5.9-6.6-12.1-9.8-18.8C272.4,299.7,268.8,291.7,265.2,282.8z"/>
		<g id="XMLID_158_">
			<g id="XMLID_161_">
				<path id="XMLID_162_" class="st2" d="M330.9,106.8c-0.1,0.6,0.6,1.1,1,0.5c3.1-4.1,7.4-6.8,12.4-7.9c0.2,0,0.3-0.1,0.4-0.3
					c-0.3,2-0.9,4.8-1.7,8.1c-1.3,5.1-2.1,8.6-4.3,12.9c-0.7,1.3-2.8,5.5-6.2,8.7c-1.9,1.8-3.5,2.7-4.1,3c-1.5,0.8-2,0.8-3.2,1.3
					c-0.8,0.4-4.9,2.1-6.7,6.2c-0.3,0.6-1.4,3.5-0.5,6.8c0.2,0.6,0.4,1.2,0.6,1.5c-0.7,0.2-2.7,0.8-4.3,2.7
					c-0.4,0.5-1.9,2.3-1.9,4.9c0,1.5,0.4,2.7,0.8,3.3c-0.3,0.9-0.7,2.2-1.6,3.5c-0.5,0.7-1,1.3-1.4,1.7c-1,0.7-2.4,1.7-3.9,3.2
					c-1.2,1.2-3.4,3.2-4.4,6.2c-1.5,4.7-0.7,9.7-3,14.2c-1.3,2.6-3.5,3.8-5.2,5.9c-1.5,1.8-1.9,4.2-2.5,6.4c-1.7,6-3.6,12-5.7,18
					c-2,6-4.2,11.8-6.5,17.7c-2.3,5.6-4.3,11.7-8,16.6c-1.2,1.6-2.6,3.1-4.1,4.5c-4,3-7,5.7-9,7.5c-6.8,6.5-7.2,8.8-12.3,11.8
					c-3.3,1.9-4.8,2-7.6,4.5c-2.1,1.9-3.8,4.2-5.7,6.3c-3.9,4.4-8.7,7.7-14.1,9.8c0-0.6,0.1-1.5,0.2-2.7c1.1-13.2,3.1-17,3.9-18.3
					c0.4-0.8,1.2-2,2.3-3.3c-0.6,0.4-1.4,1.1-2.3,2c-3.6,3.9-3,7.8-5,18.9c-0.1,0.8-0.5,2.6-0.3,5c0.2,2.2,0.6,3.7,0.7,4.1
					c0.2,0.7,0.5,1.5,2,4.2c0.4,0.7,2.3,3.3,2.6,4.6c0.2,0.5,0.1,0.8,0,0.9c-0.2,0.2-0.8,0.1-1,0.4c0,0,0,0.1,0,0.1
					c0,0.1,0,0.2,0.1,0.3c0.5,1.2-3.4,1.8-4,1.9c-1.7,0.1-2.7-0.8-4-1.7c-0.7-0.5-1.3-1.3-2.3-1.2c-1.1,0.1-1.6,1.6-2.6,1.4
					c-0.3,0-1.2-1.3-1.6-1.7c-1.2-1-2.1-1.6-2.5-1.9c-2-1.2-14-13.4-11-28.3c0.4-2.3,1.5-5.8,4.2-9.7c0.2-0.3,0.5-0.7,0.7-1
					c-1.2-0.2-3-0.3-5.3,0.1c-0.3,0.1-2.3,0.5-4.4,1.7c-4.6,2.7-6.6,7.6-7.3,9.1c-2.1,5.1-1.9,9.9-1.7,14.5c0.1,1.8,0.1,4.2,0.2,9
					c0,0,0,0.8-0.2,4.3c-0.2,3-0.3,4.1-1.2,5c-0.3,0.3-1.1,1.3-2.2,1.1c-1.1-0.2-1.6-1.3-1.7-1.4c0.2,0.5,0.4,1.3,0.3,2.2
					c-0.4,3.3-4.1,4.7-4.6,4.9c-0.7,0.3-2.3,0.9-3.1,0.1c-0.3-0.3-0.4-0.7-0.5-1.4c-0.2-1-0.3-2.3-0.5-3.9c-0.1,0.4-0.2,0.8-0.3,1.2
					c0,0-0.5,1.2-2,1.9c-3.8,2.1-11.4-2-11.4-2c-3.5-2.5-6.8-5.3-10.2-8.1c-7.3-5.9-14.5-12-21.5-18.3c-7.2-6.3-14.2-12.8-21-19.5
					c-3.3-3.2-6.3-6.7-9.9-9.7c-2.1-1.8-5.3-4.4-7-9c-0.4-1.1-0.7-2.1-0.8-2.7c-0.3,0.3-2.6,2.4-5.1,1.7c-1.3-0.3-2.1-1.2-2.6-1.9
					c-2.5-3-2.2-6.9-2.1-8.3c-0.6,0.2-1.4,0.3-2.4,0.5c-1.2,0.1-4.2,0.5-6.2-0.4c-2.6-1.2-4-4.7-4-8.6c-1.4,0.5-3.9,1.3-6.9,0.8
					c-1-0.1-1.9-0.4-2.6-0.7c-0.2-2.2-0.1-3.9,0-5.1c0-0.7,0.1-1.2,0-2.1c0-1.6-0.2-2.9-0.4-3.7c-1,0.5-2.8,1.3-5.2,1.4
					c-1.5,0-3.4,0.1-5.2-1.1c-2.4-1.7-2.9-4.6-3-5.4c-0.4-2.7,0.6-4.8,1-5.6c-0.7,0.6-2,1.5-3.8,1.7c-3.5,0.4-6.5-2.3-7.7-4.5
					c-2-3.7-0.9-9,3.1-12.7c-0.4-0.1-0.9-0.1-1.3-0.1c-1.7,0-3.2,0.2-4.4,0.5c0.4-2.7,1.2-6.1,2.6-9.7c0.9-2.3,1.9-4.3,2.9-6
					c-1,0-2.6,0-4-1.1c-3-2.1-2.7-6.7-2.6-8.4c0.3-5.4,2.9-5.7,4.6-11.8c1.4-5-0.1-5.9,1.7-13.1c0.8-3.3,1.8-5.7,4-7.3
					c1.4-1.1,3-1.5,4-1.7c-0.4-2.3-0.3-4.1-0.1-5.2c0.1-0.9,1.1-6.7,6.1-9.9c1.3-0.9,2.6-1.3,3.4-1.5c-0.4-1.6-0.9-4.1-0.7-7.1
					c0.1-2.1,0.6-10.5,6.2-13.3c1-0.5,2.6-1,4.9-0.8c0-1.5,0.2-2.8,0.5-4c2.2-8.7,10.9-12.9,13.2-14c12.7-0.6,20.5,1.4,24.9,3.1
					c1.4,0.5,5.2,1.8,9.2,3.8c3.5,1.8,6.9,3.9,10.7,4.8c6.9,1.7,13.7-1.3,20.5-2.3c8-1.2,15.8,1.7,22.8,5.3
					c12.4,6.4,22.9,16.3,30.5,28c3.8,5.9,6.9,12.3,9.1,19.1c2.2,6.9,2.4,14.5,4.9,21.3c2.8,7.6,10.5,12.9,16.3,18.1
					c6,5.4,9.2,7.2,11.8,6.3c1.8-0.7,2.8-2.4,3.4-3.9c-0.3,0.5-0.9,1.1-1.8,1.7c0,0-1,0.7-2.2,1c-2.5,0.7-6.6-2.6-8.9-4.7
					c-3-2.7-6-5.4-9-8.1c-2.9-2.7-5.9-5.5-7.7-9c-2-4.1-2.4-8.7-3.2-13.1c-2.2-12.5-7.5-24.3-15.1-34.4c-7.5-10-17.3-18.3-28.4-23.9
					c-6-3-12.6-5.5-19.5-5.3c-7.4,0.3-14.7,4.1-22.2,2.8c-4.2-0.8-7.8-3.1-11.5-5c-3.6-1.8-7.3-3.3-11.2-4.4
					c-6.8-2-13.8-2.7-20.9-2.5c9.2-3.6,19.2-2.3,28.7-0.4c5.2,1,10.3,2.3,15.5,3.1c5.4,0.8,10.9,1,16.4,1.1
					c10.8,0.2,21.3,0.9,31.2,5.7c9.1,4.5,17.1,11.1,24.5,18c4.3,3.9,8.3,8.2,11.4,13.1c3,4.9,4.9,10.3,6.5,15.8
					c2.5,8.6,4.5,19.5,11.4,25.8c6.5,6,15.5,0,21.3-4.1c8.3-5.8,15.4-13.4,20.7-22c1.3-2.1,2.5-4.3,3.6-6.6c0.8-1.6,2.4-4,2.4-5.8
					c0-0.8-0.7-2-1.4-2.5c0.4-1.3,1-2.5,1.7-3.6c1.3-1.7,3.3-1.8,3.4-3.1c0-0.2,0-0.3-0.1-0.5c0.6,0.1,1.2,0.2,1.7,0.2
					c2.1,0.2,4.6,0.5,7.7-0.3c2.2-0.6,4.9-1.7,6-2.3c3-1.7,5.4-2.3,8.9-1.7c4.4,0.9,6.3,0.9,6.7,0.2c0.3-0.6-1.3-1.4-1.1-2.8
					c0.1-1.2,1.5-2.1,2.5-2.5c2-0.7,4.2,0.1,8.7,1.9c1,0.4,1.7,0.7,2.3,0.9c0.2-0.3,0.5-0.8,0.9-1.4c1.8-3,2-3.6,2.5-4.3
					c0.7-0.9,1.8-2.1,3.8-3.2c0.7,5,1.7,6.3,2.7,6.5c1.2,0.2,1.8-1.5,4.2-1.9c2.1-0.3,4.1,0.6,4.6,1.6
					C331,105.5,331,106.1,330.9,106.8z"/>
			</g>
		</g>
		<g id="XMLID_101_">
			<path id="XMLID_111_" d="M230.4,431.2c0.5,0,1,0,1.5,0c-1.1-4-2.8-9.9-5.2-17c-5-14.5-9.1-22.4-12.5-30.1
				c-8.5-19.6-11.6-36.7-15.4-58c-2.8-15.9-4.6-32-5.3-32c-0.2,0-0.2,2.2-0.1,3.8c0.2,8.9,1.9,15.7,2.1,16.3c0,0,0,0,0,0
				c2,8,2.6,13.9,2.7,15.3c0.4,3.7,4.3,33.1,17.1,60.7c2.5,5.3,3.6,6.9,6.2,13.2C226.1,414.8,228.8,424.5,230.4,431.2z"/>
			<path id="XMLID_110_" d="M252.3,423.7c-1.1-1.5-1.5-3.5-2.5-5c-0.3-0.5-1.1-2.5-3.1-6.5c-2.1-4.3-4.2-8.6-5.7-13.2
				c-1.6-4.7-2.2-9.6-2.7-14.4c-0.6-5.1-1.5-10.1-2.8-15.1c-4.8-19.1-11.2-38-18.9-56.2c-0.1-0.3-0.6-0.1-0.5,0.2
				c7.9,19.6,15.2,39.8,19.6,60.4c2,9.5,1.9,19.3,5.4,28.4c1.7,4.5,3.9,8.8,6,13.1c1,2.2,2.3,4.8,2.9,6.6c0.1,0.2,0.2,0.7,0.5,1.3
				c0.5,1.1,1.1,1.9,1.5,2.4c0.1,0,0.2-0.1,0.3-0.2c0,0,0.1-0.1,0.2-0.3C252.8,424.5,252.3,423.7,252.3,423.7z"/>
			<path id="XMLID_109_" d="M265.5,380.1c0,0-2.8-8.5-13.4-27.6c-10.3-18.7-20.4-37.5-31.2-55.9c-0.2-0.3-0.7-0.1-0.5,0.3
				c9.9,18.9,20.6,37.4,30.9,56c6.8,12.3,10.6,18.2,13.4,27.6c1,3.4,8.1,28.5,11.1,29.4c0.3,0.1,1.1,0.3,1.4,0
				c0.3-0.4-0.2-1.2-0.4-1.3C271.6,399.8,270.1,389.2,265.5,380.1z"/>
			<path id="XMLID_108_" d="M309,397.2c-3.1-3.6-5.2-7.9-8.1-11.6c-3.4-4.4-3.4-6.9-6.6-11.9c-4.9-7.8-11.7-14.4-17.8-21.3
				c-6.2-7.1-12.2-14.1-16.4-22.6c-3.8-7.7-6.5-15.8-9.5-23.7c-3.3-8.7-7.1-17.5-13-24.9c-0.1-0.1-0.3,0-0.2,0.2
				c10.6,14.2,14.1,31.7,21.5,47.5c7.9,16.7,22.6,28.1,33.2,42.8c3.2,4.4,5.7,9.4,8.2,14.3c1.5,2.9,3.9,5.4,5.2,8.4
				c0,0,1.5,3.5,3.5,4.1c0.1,0,0.5,0.1,0.6,0C309.7,398.1,309.1,397.4,309,397.2z"/>
			<g id="XMLID_152_">
				<g id="XMLID_153_">
					<path id="XMLID_154_" class="st11" d="M305.7,123.1c2.3,2.3,3.4,5.9,3.4,8.9c0,1.5-0.3,2.1-0.4,2.2c-1.6,2.7-7.2,2.4-10.8,1.1
						c-1.4-0.5-6-2.2-7.6-7c-1-3.1-0.2-5.9,0.2-6.9C296,118.8,302.2,119.5,305.7,123.1z"/>
				</g>
			</g>
			<g id="XMLID_155_">
				<g id="XMLID_156_">
					<path id="XMLID_157_" class="st12" d="M305,123.6c2.1,2.1,3.1,5.3,3.1,8c0,1.4-0.3,1.9-0.4,2c-1.4,2.4-6.5,2.2-9.7,1
						c-1.2-0.4-5.4-2-6.8-6.3c-0.9-2.8-0.2-5.3,0.2-6.2C296.3,119.7,301.9,120.4,305,123.6z"/>
				</g>
			</g>
		</g>
		<g id="XMLID_23_">
			<g id="XMLID_90_">
				<path id="XMLID_107_" class="st13" d="M256.3,301.9c-1.1,0.3-2.9,0.9-4.3,2.3c-2.7,2.8-1.5,6.4-1.2,7.3c-0.5-0.8-1.7-3-1.4-5.5
					c0.4-2.5,2.1-3.9,2.8-4.4c0.4,0.1,0.8,0.3,1.4,0.4C254.9,302.2,255.8,302.1,256.3,301.9z"/>
				<path id="XMLID_106_" class="st13" d="M270.9,315.7c-1.2-1.3-1.7-2.9-1.7-2.9c-0.4-1.1-0.5-2.1-0.6-2.8c0.3,0.1,0.7,0.3,1.2,0.3
					c1.4,0.1,2.5-0.7,2.8-0.9c-0.5,1.1-0.9,2-1.1,2.7c-0.3,0.9-0.4,1.5-0.3,2.1c0.1,0.6,0.3,1.1,0.3,1.2c0.1,0.2,0.2,0.4,0.3,0.5
					c0.5,0.7,1.2,1.2,1.7,1.4c-0.5-0.2-1.3-0.5-2.1-1.1C271.4,316.2,271.1,316,270.9,315.7z"/>
				<path id="XMLID_105_" class="st13" d="M307.8,294.7c0.3-0.4,0.5-0.8,0.6-1.1c0.5,0.5,1.1,1.3,1.6,2.4c0,0,0.7,1.5,0.8,3.3
					c0,0.4,0,0.7,0,0.8c-0.1,0.9-0.4,1.8-0.7,2.3c0.1-0.5,0.3-1.3,0.2-2.2c0-0.2-0.1-0.4-0.2-0.6c0-0.1-0.2-0.6-0.6-1.1
					c-0.4-0.5-0.9-0.8-1.7-1.3c-0.7-0.3-1.6-0.8-2.7-1.2C305.5,296,306.8,295.8,307.8,294.7z"/>
				<path id="XMLID_104_" class="st13" d="M316,277.9c-1.9,0-3.6,0.8-4.7,1.4c0.5-0.3,1.2-0.9,1.9-1.9c0.3-0.4,0.5-0.9,0.7-1.2
					c0.9-0.2,3.1-0.4,5.1,1.1c2,1.5,2.7,3.9,2.9,4.9C321.6,281.4,319.9,278,316,277.9z"/>
				<path id="XMLID_103_" class="st14" d="M308.9,274.3c1.9-0.7,3.4-1.3,4.5-0.4c0.2,0.1,0.8,0.7,0.7,1.5c-0.1,0.7-0.6,0.8-1.8,2.2
					c-0.4,0.5-0.5,0.7-1.6,2c-0.3,0.4-0.5,0.6-0.8,0.9c-0.7,0.6-1.3,0.8-1.6,0.9c-1.4,0.5-2.7,1.1-4.1,1.6c-1.5,0.4-3.7,1.4-7,3.8
					c-1-0.5-2.3-1.2-3.9-1.6c-1.2-0.3-2.4-0.5-3.3-0.5c2.3-1.9,4.4-3.4,6.2-4.5c2.5-1.6,4.4-2.5,6-3.2
					C304.5,275.8,303.3,276.5,308.9,274.3z"/>
				<path id="XMLID_102_" class="st15" d="M274,306.5c-0.9,1.1-3.1,3.8-4.7,3.2c-0.8-0.3-1.1-1.4-1.2-1.8c-0.3-1-0.3-2.5,2.6-7.7
					c1.3-2.4,1.2-2,1.8-3.2c1.3-2.8,1.3-4.1,2.6-5.6c0.2-0.2,0.6-0.6,2.5-1.7c3.1-1.7,6-3.3,10.1-4.1c1.3-0.2,2.2-0.4,3.4-0.4
					c3.2,0,4,1.2,8.9,2.9c4.3,1.5,6.2,1.5,7.3,3.5c0.2,0.3,0.8,1.4,0.4,2.3c-0.8,1.7-5,1.2-6,1.1c-0.6-0.1-1.5-0.2-6.1-1.9
					c0,0-6.5-2.3-9-1.9c-0.6,0.1-1.2,0.3-1.2,0.3s-0.3,0.1-0.6,0.2c-3.3,1.2-6.6,7.3-6.6,7.3C275.7,303.4,275.9,304.1,274,306.5z"/>
				<path id="XMLID_100_" class="st14" d="M267.5,291.8c2.1-0.5,4.6-0.9,7.6-1.2c-0.6,0.7-1.3,1.6-1.9,2.7c-0.8,1.4-1.3,2.8-1.6,3.9
					c-4,0.6-6.3,1.5-7.6,2.2c-1.3,0.7-2.7,1.1-4,1.8c-0.2,0.1-0.9,0.4-1.7,0.5c-0.4,0-0.7,0-1.2,0c-1.7-0.2-1.9-0.2-2.5-0.3
					c-1.9-0.2-2.3,0.2-2.8-0.3c-0.7-0.5-0.6-1.3-0.6-1.5c0.1-1.4,1.6-2,3.5-2.9c5.5-2.4,4.2-2.1,6.5-2.9
					C262.6,293.2,264.6,292.5,267.5,291.8z"/>
				<path id="XMLID_91_" d="M319.1,277.3c-2-1.5-4.2-1.3-5.1-1.1c-0.2,0.4-0.4,0.8-0.7,1.2c-0.7,1-1.4,1.6-1.9,1.9
					c1-0.6,2.7-1.4,4.7-1.4c3.9,0.1,5.6,3.5,6,4.3C321.8,281.2,321.1,278.8,319.1,277.3z M308.4,293.6c-0.1,0.3-0.3,0.7-0.6,1.1
					c-0.9,1.1-2.3,1.3-2.6,1.3c1.2,0.4,2.1,0.8,2.7,1.2c0.8,0.4,1.3,0.8,1.7,1.3c0.4,0.5,0.6,1,0.6,1.1c0.1,0.2,0.1,0.4,0.2,0.6
					c0.1,0.9,0,1.7-0.2,2.2c0.2-0.5,0.6-1.3,0.7-2.3c0-0.1,0-0.4,0-0.8c-0.1-1.8-0.8-3.3-0.8-3.3
					C309.5,294.9,308.9,294.2,308.4,293.6z M290.1,284.5c0.9,0.1,2.1,0.2,3.3,0.5c1.6,0.4,2.9,1.1,3.9,1.6c3.3-2.4,5.5-3.4,7-3.8
					c1.4-0.4,2.7-1.1,4.1-1.6c0.2-0.1,0.9-0.3,1.6-0.9c0.3-0.3,0.5-0.5,0.8-0.9c1.1-1.3,1.2-1.5,1.6-2c1.2-1.4,1.7-1.5,1.8-2.2
					c0.1-0.9-0.5-1.4-0.7-1.5c-1.1-0.9-2.6-0.3-4.5,0.4c-5.6,2.2-4.5,1.5-6.6,2.5c-1.6,0.7-3.5,1.6-6,3.2
					C294.5,281.1,292.4,282.6,290.1,284.5z M269.1,312.8c0,0,0.6,1.6,1.7,2.9c0.3,0.3,0.5,0.5,0.6,0.6c0.7,0.6,1.5,1,2.1,1.1
					c-0.4-0.2-1.2-0.7-1.7-1.4c-0.1-0.2-0.2-0.4-0.3-0.5c0-0.1-0.3-0.6-0.3-1.2c-0.1-0.6,0-1.2,0.3-2.1c0.2-0.7,0.5-1.7,1.1-2.7
					c-0.3,0.2-1.4,1.1-2.8,0.9c-0.5,0-0.9-0.2-1.2-0.3C268.6,310.7,268.7,311.7,269.1,312.8z M269.3,309.7c1.5,0.6,3.8-2.2,4.7-3.2
					c1.9-2.4,1.7-3.1,4.2-7.6c0,0,3.4-6.1,6.6-7.3c0.3-0.1,0.6-0.2,0.6-0.2s0.6-0.2,1.2-0.3c2.5-0.4,9,1.9,9,1.9
					c4.6,1.7,5.5,1.8,6.1,1.9c1,0.1,5.2,0.7,6-1.1c0.4-0.9-0.2-2-0.4-2.3c-1.1-1.9-3-2-7.3-3.5c-4.9-1.7-5.7-2.8-8.9-2.9
					c-1.2,0-2.1,0.1-3.4,0.4c-4.1,0.8-7,2.3-10.1,4.1c-1.9,1.1-2.3,1.5-2.5,1.7c-1.4,1.5-1.4,2.8-2.6,5.6c-0.5,1.2-0.5,0.8-1.8,3.2
					c-2.8,5.3-2.9,6.7-2.6,7.7C268.2,308.4,268.5,309.4,269.3,309.7z M253.3,296.8c1.9-0.9,3.2-1.6,6.2-2.9c2.1-0.9,2.3-1,2.7-1.2
					c2-0.9,5.7-2,12.7-2.5c0.9-0.5,1.9-0.9,3-1.4c3.6-1.6,6.6-2.7,8.9-3.6c1.2-0.4,2.2-0.8,3.1-1.1c5.3-4.6,8.7-6.4,10.7-7.2
					c0.4-0.2,0.6-0.2,2.8-1.1c3-1.2,4.4-1.6,6.4-2.3c0.9-0.3,3.1-1.1,4.4,0c0.4,0.4,0.5,0.8,0.5,0.8c0.1,0.4,0,0.7,0,0.9
					c0.3,0,0.8,0.1,1.3,0.2c0.4,0.1,2.1,0.5,3.7,1.9c0.5,0.4,1.7,1.6,2.3,3.5c0.3,1,0.4,2.3,0.1,2.4c-0.5,0.2-1-2.8-3.5-4
					c-1.4-0.7-3.1-0.6-3.6-0.5c-0.6,0-1.3,0.2-2.8,0.7c-0.1,0-0.4,0.1-0.7,0.3c-0.6,0.4-1,0.9-1,1c-0.8,1.3-5.6,2.8-5.8,2.9
					c-1.7,0.5-4,1.4-6.7,3.2c2.8,0.7,5,1.6,6.7,2.3c1.8,0.8,3.2,1.6,3.8,3.1c0.2,0.4,0.2,0.7,0.3,1c1.3,1.9,1.9,3.7,2.2,4.8
					c0.5,2.3,0.1,3.3-0.1,3.7c-0.3,0.6-0.8,1-1.1,1.3c0.5-2.3-0.2-3.6-0.4-3.9c0,0-1-1.6-5.1-2.8c-0.2-0.1-0.5-0.1-0.5-0.1
					c-0.3-0.1-0.6,0-1.8-0.2c-1.1-0.2-6.5-2-7.5-2.4c-2.8-0.9-5.6-1.8-8.8-1.1c-0.7,0.2-1.3,0.4-2.1,0.7c-1.3,0.6-3.3,2.8-5.3,7
					c0,0-2.8,5.9-3.6,7c-0.7,1-0.9,1.2-1.1,1.5c0,0-0.1,0.2-0.3,0.4c-2.1,3.8-1.7,5.6-1.7,5.6c0.1,0.4,0.5,1.8,2.5,3.1
					c-0.4,0-1,0.1-1.7-0.1c-0.4-0.1-1.4-0.5-2.6-2.5c-0.6-1-1.4-2.6-1.9-4.9c-0.1-0.2-0.3-0.5-0.5-0.9c-0.6-1.5-0.2-3.1,0.5-4.9
					c0.6-1.7,1.6-3.9,3.1-6.4c-3.2,0.7-5.5,1.6-7,2.4c-0.1,0.1-4.6,2.4-6.1,2.1c-0.1,0-0.7-0.2-1.4,0c-0.3,0.1-0.5,0.2-0.7,0.3
					c-1.4,0.8-2.1,1.2-2.5,1.5c-0.4,0.4-1.7,1.4-2.2,2.9c-0.9,2.6,0.8,5.1,0.4,5.3c-0.3,0.1-1.1-0.9-1.6-1.8c-1-1.7-0.9-3.4-0.9-4.1
					c0.1-2.1,1-3.6,1.2-4c0.3-0.4,0.6-0.8,0.8-1c-0.2-0.1-0.4-0.3-0.6-0.6c0,0-0.2-0.4-0.2-1C250.4,298.1,252.5,297.1,253.3,296.8z
					 M254.5,301.4c0.6,0.1,0.8,0.1,2.5,0.3c0.5,0.1,0.8,0.1,1.2,0c0.9-0.1,1.5-0.4,1.7-0.5c1.3-0.7,2.7-1.1,4-1.8
					c1.3-0.7,3.6-1.6,7.6-2.2c0.3-1.1,0.8-2.4,1.6-3.9c0.6-1.1,1.3-2,1.9-2.7c-3,0.2-5.5,0.7-7.6,1.2c-2.9,0.7-4.9,1.4-6.5,2
					c-2.3,0.8-0.9,0.5-6.5,2.9c-1.9,0.8-3.4,1.5-3.5,2.9c0,0.2-0.1,1,0.6,1.5C252.2,301.6,252.6,301.3,254.5,301.4z M252.1,304.3
					c1.3-1.4,3.1-2,4.3-2.3c-0.5,0.1-1.5,0.2-2.7,0c-0.5-0.1-1-0.2-1.4-0.4c-0.7,0.5-2.4,1.9-2.8,4.4c-0.4,2.5,0.8,4.7,1.4,5.5
					C250.5,310.7,249.4,307.1,252.1,304.3z"/>
			</g>
		</g>
		<g id="XMLID_15_">
			<g id="XMLID_16_">
				<path id="XMLID_43_" class="st13" d="M184.9,338.7c0.2,0.2,0.5,0.4,0.9,0.5c0.5,0.1,1-0.1,1.6-0.3c0.6-0.2,1.4-0.5,2.4-0.8
					c-1.8,1.4-2.8,2.8-3.4,3.8c-0.6,0.9-1,1.9-1.3,3c-0.2,0.9-0.4,1.5-0.2,2.4c0.2,1,0.9,1.8,1.3,2.2c-0.6-0.3-1.5-0.9-2-1.8
					c-0.6-0.9-0.7-1.9-0.5-3.4C183.9,342.9,184.2,341,184.9,338.7z"/>
				<path id="XMLID_42_" class="st13" d="M182.3,321.7c0.7,0.3,1.4,0.3,1.8,0.3c-0.9,0.1-2.3,0.3-3.7,1c-2.9,1.5-3.6,4.1-3.7,4.7
					c0-0.6,0.1-2.2,1.3-3.8c1.2-1.6,2.9-2.3,3.6-2.6C181.7,321.4,182,321.5,182.3,321.7z"/>
				<path id="XMLID_41_" class="st15" d="M210.4,314.6c-1,0.6-2.2,1.4-3.3,2.3c-1.1,0.8-2.1,1.7-2.9,2.4c-4.7-0.6-7.9-0.1-10,0.4
					c-2,0.5-4.2,0.8-6.2,1.4c-0.3,0.1-1.6,0.5-3.4,0.4c-0.9,0-2.1-0.1-2.5-0.7c-0.4-0.6,0.2-1.4,0.3-1.5c0.9-1.3,2.7-1.6,4.9-2.1
					c6.6-1.4,5.1-1.3,7.7-1.7c1.9-0.3,4.2-0.7,7.3-0.9C204.6,314.5,207.3,314.4,210.4,314.6z"/>
				<path id="XMLID_40_" class="st13" d="M275.2,325.3c0-0.9-0.2-2.7-1.5-4.4c-0.2-0.3-1.1-1.4-2.6-2.3c-2.9-1.8-6.2-2-6.1-2.4
					c0-0.2,1-0.1,1.9-0.7c0.6-0.4,0.9-0.9,1.1-1.4c1.1,0.3,2.5,0.9,3.8,1.8C276.2,319.2,275.3,324.7,275.2,325.3z"/>
				<path id="XMLID_39_" class="st13" d="M255.9,318.5c0.1-1.5-0.7-2.5-1-2.9c0.5,0,1.1,0.1,1.7,0c0.2,0,0.5,0,0.7,0
					c0.1,0.5,0.4,1.7-0.2,3c-0.7,1.6-2,2.4-2.5,2.7C254.8,321.1,255.8,320.1,255.9,318.5z"/>
				<path id="XMLID_38_" class="st15" d="M222.5,309.4c1.9-1.6,4.8-3.4,8.7-4.6c2.2-0.7,7.1-2.3,13.4-1.3c3.1,0.5,5.5,1.4,7,2.1
					c-3.9-0.3-10-0.4-16.9,1.2c-4.9,1.1-8.8,2.8-11.6,4.2C222.9,310.4,222.7,309.9,222.5,309.4z"/>
				<path id="XMLID_37_" class="st16" d="M266.6,309.9c1.3,1.6,1.6,4,0.2,5.2c-0.9,0.8-2.2,0.5-6.7,0.1c-7.7-0.8-12.2-0.7-14.2-0.7
					c0,0-1.5,0-3.3,0.2c-4,0.3-16.8,1.1-28.3,7.1c-6,3.1-4.6,3.8-13,9.1c-4.8,3-9.9,5.5-15.3,7.7c-0.6-2.5,4.5-5.8,6.1-7.2
					c2-1.8,1.8-1.6,7-6.1c2.9-2.5,6-5.3,10.6-8.7c1.6-1.2,2.4-1.8,3.7-2.3c3-1.3,4.9-0.9,8.3-1.7c2.9-0.7,4.2-1.6,6.5-2.7
					c5.9-2.7,11.8-3,18.9-3.4c1.2-0.1,7.5-0.4,14.5,1.1C263.3,307.8,265.3,308.4,266.6,309.9z"/>
				<path id="XMLID_17_" d="M273.7,320.9c1.3,1.8,1.5,3.5,1.5,4.4c0.1-0.7,1-6.1-3.4-9.4c-1.3-0.9-2.6-1.5-3.8-1.8
					c-0.2,0.4-0.5,1-1.1,1.4c-0.9,0.6-1.9,0.4-1.9,0.7c-0.1,0.4,3.2,0.6,6.1,2.4C272.7,319.5,273.5,320.6,273.7,320.9z M254.9,315.6
					c0.3,0.4,1.1,1.4,1,2.9c-0.1,1.6-1,2.6-1.3,2.9c0.5-0.3,1.9-1.1,2.5-2.7c0.6-1.4,0.3-2.5,0.2-3c-0.2,0-0.5,0-0.7,0
					C255.9,315.7,255.4,315.7,254.9,315.6z M223,310.9c2.8-1.4,6.7-3,11.6-4.2c7-1.6,13-1.5,16.9-1.2c-1.5-0.7-3.9-1.6-7-2.1
					c-6.2-0.9-11.2,0.6-13.4,1.3c-3.9,1.3-6.7,3.1-8.7,4.6C222.7,309.9,222.9,310.4,223,310.9z M186,338.5
					c5.4-2.2,10.5-4.7,15.3-7.7c8.4-5.3,7-6,13-9.1c11.5-6,24.3-6.8,28.3-7.1c1.8-0.1,3.3-0.2,3.3-0.2c2,0,6.5-0.1,14.2,0.7
					c4.5,0.4,5.8,0.7,6.7-0.1c1.3-1.1,1.1-3.6-0.2-5.2c-1.2-1.5-3.3-2.1-5.1-2.4c-7-1.5-13.2-1.2-14.5-1.1c-7.1,0.4-13,0.7-18.9,3.4
					c-2.3,1-3.5,2-6.5,2.7c-3.3,0.8-5.3,0.5-8.3,1.7c-1.3,0.5-2.1,1.1-3.7,2.3c-4.5,3.4-7.7,6.2-10.6,8.7c-5.2,4.5-5,4.3-7,6.1
					C190.4,332.7,185.3,336,186,338.5z M185,347.3c-0.2-0.9,0-1.5,0.2-2.4c0.3-1,0.7-2,1.3-3c0.6-0.9,1.6-2.3,3.4-3.8
					c-1,0.3-1.8,0.6-2.4,0.8c-0.6,0.2-1.1,0.4-1.6,0.3c-0.4-0.1-0.8-0.3-0.9-0.5c-0.7,2.3-1,4.2-1.1,5.6c-0.2,1.5-0.1,2.5,0.5,3.4
					c0.6,0.9,1.5,1.5,2,1.8C185.9,349.1,185.3,348.3,185,347.3z M184,321.9c-0.4,0-1,0-1.8-0.3c-0.3-0.1-0.6-0.3-0.8-0.4
					c-0.7,0.3-2.3,1-3.6,2.6c-1.2,1.6-1.4,3.2-1.3,3.8c0.1-0.6,0.9-3.1,3.7-4.7C181.8,322.2,183.2,322,184,321.9z M182,320.9
					c0.4,0.6,1.7,0.7,2.5,0.7c1.8,0,3.1-0.3,3.4-0.4c2-0.6,4.1-0.9,6.2-1.4c2.1-0.5,5.3-1,10-0.4c0.8-0.8,1.8-1.6,2.9-2.4
					c1.1-0.9,2.3-1.6,3.3-2.3c-3.1-0.2-5.8-0.2-8.1,0c-3.1,0.2-5.4,0.6-7.3,0.9c-2.6,0.4-1.2,0.3-7.7,1.7c-2.2,0.5-4,0.8-4.9,2.1
					C182.2,319.5,181.7,320.3,182,320.9z M183.3,344c0-1.3,0.2-3.3,1.1-5.6c-0.2-1.1,0.4-2.2,1.4-3.2c2.3-2.6,5.4-4.9,8.1-7.2
					c3.1-2.7,6.3-5.4,9.6-8.1c-3,0-6.1,0.1-9.1,0.5c-2.9,0.4-5.6,1.3-8.5,1.6c-0.2,0-0.4,0-0.6,0c-0.8,0.1-2,0.3-3.4,0.8
					c-1.1,0.4-3.3,1.3-4.3,3c-1,1.6-0.5,3.2-0.7,3.2c-0.2,0-1-1.7-0.4-3.5c0.7-2.2,2.9-3.7,3.7-4.1c0.4-0.3,0.8-0.5,1-0.6
					c-0.1-0.3-0.1-0.8,0.3-1.3c1.1-1.6,3.7-2.2,4.7-2.4c2.3-0.5,3.9-1,7.4-1.7c2.5-0.5,2.8-0.6,3.2-0.7c2.4-0.5,6.6-1,13.7-0.4
					c1.6-0.4,2.8-0.7,3.7-0.9c2.3-0.5,3.4-0.6,5.4-1.1c1.1-0.3,2-0.6,2.6-0.8c-0.1-0.7-0.2-1.5-0.3-2.2c0.6-0.5,1.4-1.2,2.5-1.9
					c3.9-2.5,7.7-3.3,9.8-3.8c1.5-0.3,5.9-1.2,10.5-0.5c1.1,0.2,2.4,0.5,2.5,0.5c2.8,0.6,4.3,1.5,5.7,1.8c4.3,1,5.7,0.4,9.1,1.6
					c1.8,0.6,4.6,1.6,5.7,3.9c0.6,1.1,0.6,2.1,0.5,2.8c0.8,0.2,2.2,0.7,3.5,1.6c1.6,1.1,2.4,2.4,2.7,2.9c2.2,3.6,0.9,7.8,0.5,8.7
					c-0.1-1.6-0.5-5.4-3.6-7.4c-1.4-0.9-3.8-1.7-4.5-2c-1.4-0.5-2.7-0.9-3.5-1.1c-0.2,0-0.5-0.1-0.7-0.1c-1.7-0.2-3.4-0.4-5.1-0.6
					c0.2,0.6,0.5,2.2-0.4,3.8c-1.3,2.2-4.1,3.1-4.3,3c-0.1-0.1,1.7-0.9,2.3-2.6c0.6-1.6-0.3-3.1-1-4.2c-2.7-0.2-6.3-0.3-10.5-0.1
					c-4.3,0.2-9.8,1-16.6,2.4c-6.6,1.4-10.9,4.3-15.6,7.1c-4.6,2.8-7.2,5.1-15.1,9.6c-1.4,0.8-2.7,1.5-3.5,1.9
					c-0.7,0.4-1.6,0.9-2.5,1.7c-3.7,3-6.5,8-4.6,10.4c0.3,0.4,1,1,0.9,1.2c-0.2,0.2-1.1-0.2-1.7-0.7
					C183.4,348,183.4,345.9,183.3,344z"/>
			</g>
		</g>
		<path id="XMLID_20_" d="M306.5,127.2c-0.2-0.9-0.6-1.7-1-2.5c-0.1-0.2-0.8-1.2-2-2.1c0,0-3.9-2.9-10.2-0.6
			c-0.3,0.1-0.4,0.3-0.4,0.3c0,0-0.1,0.1-0.2,0.2c-0.1,0.1-1,1.8-0.6,4.2c0.3,2.1,1.7,4.1,3.8,5.3c1.8,1.1,3.9,1.4,6,1.4
			c1.2,0,3.9-0.1,4.7-1.2C307.4,130.9,306.7,128.3,306.5,127.2z"/>
		<g id="XMLID_73_">
			<g id="XMLID_159_">
				<path id="XMLID_160_" class="st2" d="M303.8,123.6c1.6,1.7,2.4,4.2,2.4,6.3c0,1.1-0.2,1.5-0.3,1.6c-1.1,1.9-5.1,1.7-7.7,0.8
					c-1-0.4-4.3-1.6-5.4-4.9c-0.7-2.2-0.1-4.2,0.1-4.9C297,120.5,301.4,121.1,303.8,123.6z"/>
			</g>
		</g>
		<g id="XMLID_172_">
			<path id="XMLID_173_" class="st3" d="M219.7,209c3.1-8.6,1.9-18,1.3-21.3c-0.2-1.3-0.5-2.4-0.8-3.6c-0.6-0.5-1.3-1.1-2-1.8
				c-5.9-5.2-13.5-10.5-16.3-18.1c-2.5-6.8-2.6-14.4-4.9-21.3c-2.2-6.7-5.2-13.1-9.1-19.1c-7.6-11.7-18.1-21.6-30.5-28
				c-7-3.7-14.8-6.5-22.8-5.3c-6.8,1-13.5,3.9-20.5,2.3c-3.9-0.9-7.2-3-10.7-4.8c-4.1-2-7.9-3.3-9.2-3.8c-4.3-1.6-12.1-3.7-24.9-3.1
				c-2.3,1.1-11,5.3-13.2,14c-0.3,1.1-0.5,2.5-0.5,4c-2.3-0.2-3.9,0.3-4.9,0.8c-5.6,2.7-6.1,11.1-6.2,13.3c-0.2,3,0.3,5.5,0.7,7.1
				c-0.8,0.2-2,0.7-3.4,1.5c-5,3.3-6,9-6.1,9.9c-0.2,1.1-0.3,2.9,0.1,5.2c-1.1,0.2-2.6,0.6-4,1.7c-2.2,1.6-3.1,4-4,7.3
				c-1.8,7.3-0.3,8.1-1.7,13.1c-1.7,6.1-4.3,6.4-4.6,11.8c-0.1,1.6-0.4,6.2,2.6,8.4c1.4,1,3,1.1,4,1.1c-1,1.7-2,3.7-2.9,6
				c-1.4,3.6-2.2,6.9-2.6,9.7c1.2-0.3,2.7-0.5,4.4-0.5c0.5,0,0.9,0,1.3,0.1c-4,3.7-5.2,9-3.1,12.7c1.2,2.3,4.2,4.9,7.7,4.5
				c1.8-0.2,3.1-1.1,3.8-1.7c-0.4,0.8-1.4,2.9-1,5.6c0.1,0.8,0.5,3.7,3,5.4c1.8,1.2,3.7,1.2,5.2,1.1c2.4-0.1,4.2-0.9,5.2-1.4
				c0.2,0.9,0.3,2.1,0.4,3.7c0,0.8,0,1.4,0,2.1c-0.1,1.2-0.1,3,0,5.1c0.7,0.3,1.6,0.5,2.6,0.7c3,0.4,5.5-0.3,6.9-0.8
				c0,3.9,1.4,7.4,4,8.6c2,0.9,5,0.5,6.2,0.4c1-0.1,1.8-0.3,2.4-0.5c-0.2,1.4-0.4,5.3,2.1,8.3c0.5,0.6,1.3,1.5,2.6,1.9
				c2.6,0.7,4.9-1.4,5.1-1.7c0.1,0.7,0.4,1.6,0.8,2.7c1.7,4.6,5,7.2,7,9c3.5,3,6.5,6.5,9.9,9.7c6.9,6.6,13.9,13.1,21,19.5
				c7.1,6.2,14.2,12.3,21.5,18.3c3.4,2.7,6.7,5.5,10.2,8.1c0,0,7.5,4,11.4,2c1.4-0.8,2-1.9,2-1.9c0.1-0.4,0.2-0.8,0.3-1.2
				c0.2,1.6,0.3,2.9,0.5,3.9c0.1,0.7,0.2,1.1,0.5,1.4c0.8,0.7,2.5,0.1,3.1-0.1c0.5-0.2,4.2-1.6,4.6-4.9c0.1-0.9-0.1-1.7-0.3-2.2
				c0.1,0.1,0.6,1.3,1.7,1.4c0.4,0.1,0.7,0,1-0.1c0.8-19.7-7.9-52.2,13.4-80.8C197.2,225.1,214.3,223.8,219.7,209z"/>
		</g>
		<path id="XMLID_168_" class="st17" d="M334.1,127.2c-0.8,0.5-1.9,1.2-3.2,1.8c-1.4,0.7-2.7,1.4-4.5,2c-3.3,1.1-4.3,0.6-5.3,1.8
			c-0.6,0.7-0.3,1-1.3,3.3c-0.8,2-1.6,3.2-1.5,3.3c0.2,0.1,3.8-4.7,5.8-5.8c0.4-0.2,0.7-0.3,0.9-0.4c1.2-0.5,1.8-0.5,3.2-1.3
			c0.7-0.3,2.2-1.2,4.1-3C333.1,128.3,333.6,127.7,334.1,127.2z"/>
		<path id="XMLID_180_" class="st3" d="M310,163.8c0.4-0.4,1-1,1.4-1.7c0.9-1.3,1.3-2.5,1.6-3.5c-0.3-0.6-0.8-1.8-0.8-3.3
			c0-2.6,1.4-4.4,1.9-4.9c1.6-1.9,3.6-2.5,4.3-2.7c-0.2-0.4-0.4-0.9-0.6-1.5c-0.2-0.7-0.3-1.4-0.3-2c-3.1,1.2-7.3,3.4-10.6,7.6
			c-1.4,1.8-2.2,3.4-3,5.3c-6.6,14.9-6.8,23.9-12.7,26c-1.2,0.4-1.3,0.1-3,0.7c-5,1.7-5.8,5.2-9.3,5.7c-2.4,0.3-2.9-1.2-5-1
			c-4.6,0.4-7.3,8.7-8.7,12.7c0,0-4.3,12.5-11.7,26.7c-3,5.7-9.4,18.1-22,24.7c-11.5,6-18,1.7-30.7,8.7c-7.3,4-12.1,9.3-14.9,12.9
			c0.5-0.5,1.3-1.1,2.2-1.7c2.1-1.2,4.1-1.7,4.4-1.7c2.2-0.5,4.1-0.3,5.3-0.1c5.7,1.7,9.7,4.4,12,6.3c1.9,1.6,3.7,3,5.2,5.5
			c3.1,5.3,2.2,11.1,1.7,13.4c0.1-0.8,0.2-1.6,0.3-2.5c0.9-6.3,2.4-12,4.2-17.2c-1.5,5.5-2.6,11.5-3.1,17.8c-0.1,0.7-0.1,1.3-0.2,2
			c0.4,0.1,0.9,0.1,1.3,0.2c4.8-2.1,9.2-5.2,12.7-9.2c1.9-2.1,3.6-4.4,5.7-6.3c2.9-2.6,4.4-2.6,7.6-4.5c5.2-3.1,5.5-5.4,12.3-11.8
			c2-1.9,4.9-4.6,9-7.5c1.5-1.4,2.8-2.8,4.1-4.5c3.7-4.9,5.8-11,8-16.6c2.3-5.9,4.5-11.7,6.5-17.7c2-5.9,3.9-11.9,5.7-18
			c0.6-2.2,1-4.6,2.5-6.4c1.7-2.1,4-3.3,5.2-5.9c2.3-4.6,1.5-9.5,3-14.2c1-3.1,3.2-5,4.4-6.2C307.6,165.5,309,164.4,310,163.8z"/>
		<path id="XMLID_134_" d="M292.9,109c-0.9-0.5-1.4-1.2-2.2-1.6c-1-0.6-2.3-0.9-3.4-1.3c-0.6-0.2-3.1-1.5-3.7-0.9
			c-0.7,0.8,1,1.8-1.5,1.2c-0.3-0.1-1.1-0.5-1.6-0.7c-1.3-0.3-2.4,0.3-3.7-0.2c-0.2-0.1-0.3,0.2-0.1,0.3c1.5,0.6,2,0.3,3.4,0.5
			c1.2,0.1,2.3,0.7,3.5,0.9c0.1,0,0.2-0.1,0.2-0.2c-0.3-2.2,3.7-0.2,4.7,0.2c1.6,0.6,2.6,1.7,4.1,2.5
			C293,109.8,293.3,109.2,292.9,109z"/>
		<g id="XMLID_176_">
			<path id="XMLID_177_" class="st18" d="M163.4,318.8c0.6-0.3,1-0.7,1.4-1.1c-3-3.5-7-7.7-11.8-12.8c-20.3-21.4-36.1-32.2-50.7-44
				c-29.4-23.8-44-35.7-51.3-52.7c-16.8-39,4.4-84.2,9.3-94.7c6.5-13.8,14.2-24.5,19.9-32.4c-3.1-0.3-6.7-0.3-10.9-0.1
				c-2.3,1.1-11,5.3-13.2,14c-0.3,1.1-0.5,2.5-0.5,4c-2.3-0.2-3.9,0.3-4.9,0.8c-5.6,2.7-6.1,11.1-6.2,13.3c-0.2,3,0.3,5.5,0.7,7.1
				c-0.8,0.2-2,0.7-3.4,1.5c-5,3.3-6,9-6.1,9.9c-0.2,1.1-0.3,2.9,0.1,5.2c-1.1,0.2-2.6,0.6-4,1.7c-2.2,1.6-3.1,4-4,7.3
				c-1.8,7.3-0.3,8.1-1.7,13.1c-1.7,6.1-4.3,6.4-4.6,11.8c-0.1,1.6-0.4,6.2,2.6,8.4c1.4,1,3,1.1,4,1.1c-1,1.7-2,3.7-2.9,6
				c-1.4,3.6-2.2,6.9-2.6,9.7c1.2-0.3,2.7-0.5,4.4-0.5c0.5,0,0.9,0,1.3,0.1c-4,3.7-5.2,9-3.1,12.7c1.2,2.3,4.2,4.9,7.7,4.5
				c1.8-0.2,3.1-1.1,3.8-1.7c-0.4,0.8-1.4,2.9-1,5.6c0.1,0.8,0.5,3.7,3,5.4c1.8,1.2,3.7,1.2,5.2,1.1c2.4-0.1,4.2-0.9,5.2-1.4
				c0.2,0.9,0.3,2.1,0.4,3.7c0,0.8,0,1.4,0,2.1c-0.1,1.2-0.1,3,0,5.1c0.7,0.3,1.6,0.5,2.6,0.7c3,0.4,5.5-0.3,6.9-0.8
				c0,3.9,1.4,7.4,4,8.6c2,0.9,5,0.5,6.2,0.4c1-0.1,1.8-0.3,2.4-0.5c-0.2,1.4-0.4,5.3,2.1,8.3c0.5,0.6,1.3,1.5,2.6,1.9
				c2.6,0.7,4.9-1.4,5.1-1.7c0.1,0.7,0.4,1.6,0.8,2.7c1.7,4.6,5,7.2,7,9c3.5,3,6.5,6.5,9.9,9.7c6.9,6.6,13.9,13.1,21,19.5
				c7.1,6.2,14.2,12.3,21.5,18.3c3.4,2.7,6.7,5.5,10.2,8.1C152.1,316.8,159.6,320.9,163.4,318.8z"/>
			<path id="XMLID_179_" class="st18" d="M166.2,319.4c0,0.1,0,0.2,0,0.2c0.1,0.7,0.2,1.1,0.5,1.4c0.3,0.3,0.7,0.3,1.1,0.3
				C167.3,320.8,166.8,320.1,166.2,319.4z"/>
		</g>
		<path id="XMLID_183_" class="st19" d="M278.9,112.7c2.9-0.8,5.1-2.5,7.8-3.6c3.9-1.6,7.6,0.6,11.5,0.2c-1-1.2-0.8-3.2,0.6-4.2
			c3.3-2.5,9.5,0,13.2,1.4c0.3-1.2,1-2.9,2.3-4.7c1.8-2.5,4-3.8,5.2-4.4c0.4,1.6,0.9,3,1.2,4c0.7,2.1,1,2.6,1.6,2.8
			c0.8,0.3,1.2-0.4,2.8-1c0.5-0.2,3.4-1.2,5.1,0.1c1.2,0.9,1.4,2.5,1.5,3.3c1.1-1.4,2.8-3.1,5.3-4.7c3-2,6-2.9,7.9-3.3
			c0.5-3.6,1.8-9.4,5.5-15.5c0.4-0.6,0.7-1.2,1.1-1.7c-0.5,1.2-2.2,4.8-6,6.4c-0.9,0.4-1.8,0.6-2.6,0.7c-1-0.4-2.6-1.3-3.6-2.9
			c-1.8-3-1-7.5,2.3-10.9c-0.8,0.6-2,1.3-3.5,2c-1,0.5-1.8,0.9-1.9,0.8c-0.1-0.2,1.6-1.2,3.3-2.9c0.2-0.2,0.4-0.4,0.6-0.6
			c-0.7,0.4-2,1.2-3.8,1.4c-2.3,0.3-4.1-0.5-4.8-0.8c-0.3,0.5-2,3.6-5.6,4.4c-1.9,0.4-3.4,0.1-4.3-0.2c-0.1,0.5-0.9,3.9-4.3,5.8
			c-3.7,2-7.4,0.3-7.8,0.1c-6.2-8.5-9.2-9.9-10.8-9.3c-0.9,0.3-1,1.2-2.4,2.5c-2.1,1.9-4.6,2.7-6.4,3c-1.8-0.5-4.8-1.5-7.6-4
			c-3.3-3-6.3-8-4.9-10c1.1-1.6,4.7-0.7,5-2c0.3-1.1-2-2.2-1.7-3.3c0.3-0.9,1.6-0.5,2.3-1.5c0.9-1.4-1.1-3.1-0.9-6.1
			c0.2-2.1,1.3-2.9,0.9-3.4c-0.8-0.9-5.8,0.7-8.8,4.3c-5.2,6.2-2.7,16.4-3.5,16.5c-0.2,0-0.5-0.9-1-3c-1.5-6.9-0.8-9.7-1.8-10
			c-1.5-0.5-6.1,4.6-6.3,10.5c-0.1,3.3,1.3,6,2.5,8.5c2.2,4.4,3.8,4.9,4.5,7.5c0.6,2.2,0.5,5.7-3.2,11c1,0.9,2.2,2,3.4,3.2
			c1.5,1.4,4.1,3.7,7.7,6.1c0.7,0.5,1.3,0.8,1.7,1.1c-3.1,0.1-10.3,0.1-18.1-3.4c-1.6-0.9-3.5-0.6-4.7,0.5c-1.5,1.4-1.5,4,0.1,5.7
			c6.4,3.4,12.3,4,14.5,4.3C272.7,113.5,275.5,113.7,278.9,112.7z"/>
		<path id="XMLID_175_" class="st4" d="M220.2,184.1c-0.6-0.5-1.3-1.1-2-1.8c-5.9-5.2-13.5-10.5-16.3-18.1
			c-2.5-6.8-2.6-14.4-4.9-21.3c-2.2-6.7-5.2-13.1-9.1-19.1c-7.6-11.7-18.1-21.6-30.5-28c-7-3.7-14.8-6.5-22.8-5.3
			c-6.8,1-13.5,3.9-20.5,2.3c-3.9-0.9-7.2-3-10.7-4.8c-4.1-2-7.9-3.3-9.2-3.8c-4.3-1.6-12.1-3.7-24.9-3.1c-0.9,0.4-2.6,1.2-4.5,2.5
			c3.2-0.2,8-0.2,13.6,0.8c13.7,2.5,22.8,9.1,25.5,11.3c2.8,2.2,6.7,5.7,10.5,10.8c-3.5,0.2-5.8,3.4-5.3,6.3c0.5,2.4,3.1,4.3,6,4
			c-0.8,0-3.3,0-5.5,1.8c-1.2,0.9-1.9,2-2.3,2.8c-1.3,0.6-2.2,1.8-2.3,3.3c0,1.6,1,3,2.5,3.5c1.2,0.6,3.4,1.4,6.3,1.5
			c2.9,0.1,5.1-0.7,6.3-1.3c-0.8,0.4-1.9,0.9-3.3,1.6c-4.1,2.1-6.2,3.3-7,4.8c-0.4,0.7-1.3,2.7-0.1,6.4c0.1,0.3,1,2.4,3.4,3
			c1.4,0.3,2.6-0.1,3-0.3c3.4-0.7,4.1-0.1,4.3,0.3c0.8,1.4-3.3,5.1-4.4,6c-0.5,1.1-1.1,3.1-1,5.6c0.1,1.3,0.3,2.4,0.6,3.3
			c-0.5,1.3-0.2,2.8,0.8,3.8c1.2,1.1,3.2,1.2,4.6,0c2.4-0.8,4.8-1.6,7.1-2.4c-0.4,0.8-1,2.1-1.1,3.9c-0.1,1.2,0.1,2.3,0.3,3
			c0.9,0.4,2.5,0.9,4.5,0.9c2.6,0,4.5-0.9,5.5-1.4c-0.3,0.3-1.1,1.4-1.1,3c0,1.2,0.4,2.1,0.6,2.5c1,0.4,2.8,1,5.1,0.9
			c1.2-0.1,2.2-0.4,3-0.6c-3,4-3.2,8.9-0.9,12c1.6,2.1,4.1,2.8,5.1,3c-0.7,0.9-1.9,2.8-2.4,5.4c-0.6,3.8,0.7,6.7,1.3,7.8
			c2.6,2.3,6.1,4.5,9.1,3.5c2.4-0.8,3.6-3.2,4.4-2.9c1.3,0.6-2.6,7.5-0.3,10.6c1.1,1.5,3.8,2.5,10.6,1c-2.4,3.2-2.1,7.5,0.3,9.9
			c2.8,2.8,8.4,2.6,11.4-1.4c0.2,3.3,1.7,6.2,4,7.1c3.3,1.3,6.8-1.7,8.5-3.1c4.9-4.2,5.9-10.2,6.1-12.6c1.5,0,7.3-0.4,12.3-5
			c3.9-3.7,5-8.1,5.4-9.8c-4.4-0.8-6.3-2.4-7.1-3.8c-0.6-0.9-0.8-1.8-1.8-2.4c-1.6-1-3.1,0.2-4.9-0.5c-1.9-0.8-3.3-3.2-2.8-4
			c1-1.4,8,4.6,16.6,2.9c0.5-0.1,5-1,5.1-2.8C225.2,186.2,223.2,184.9,220.2,184.1z"/>
		<g id="XMLID_10_">
			<path id="XMLID_128_" d="M225.1,187.5c0-0.2-5.1,1.6-11.6,0.2c-2.9-0.7-5.9-1.3-8.1-3.8c-1.8-2-2-3.8-4.3-5.3
				c-1.6-1-3.2-1.2-4.4-1.2c-0.2-0.6-0.4-1.3-0.5-1.9c-0.1-0.7-0.2-1.4-0.4-2.1c-0.2-1-0.6-2.1-1-3.1c-1-2.4-2.4-4.5-4.2-6.4
				c-0.7-0.7-1.5-1.6-2.4-2.1c-0.7-0.4-1.4-0.4-2.3-0.6c-3.7-1.1-0.4-7.6,1.1-9.7c0.2-0.3-0.2-0.7-0.5-0.4c-1.8,1.8-5.1,2.1-6.9-0.1
				c-1.8-2.2-0.8-5.3,1.3-6.8c0.2-0.1,0.1-0.5-0.2-0.5c-2.6,0-5.3-0.1-7.9-0.1c-1.8,0-1.9,0.2-1.3-1.5c0.4-1.3,1.5-2.7,2.2-3.9
				c0.1-0.2,0-0.5-0.2-0.5c-7.7-0.8-15.7-1-23.4-2.3c-8.1-1.4-6.2-10-8.5-15.8c-1.3-3.1-5.2-5.1-4-8.9c0.5-1.7,1.8-2.9,0.7-4.7
				c-0.7-1.3-2.3-1.9-3.3-3c-0.9-1.1-1.5-2.5-1.7-3.9c-0.6-3.6,1-7.3,4.2-9c0.2-0.1,0-0.3-0.1-0.3c-4.3,2.3-5.8,8.2-3.3,12.3
				c0.8,1.4,2,1.8,3,2.9c2.8,3.2,0.2,4.1-0.2,6.7c-0.2,1.1,0.2,2,0.8,3c1.4,2,3.1,3.2,3.8,5.6c1.7,5.5,0.4,13.4,7.4,15.4
				c4.4,1.2,9.5,1.1,14,1.6c2.5,0.2,5,0.5,7.4,0.7c0.7,0.1,1.4,0.1,2.1,0.2c0.5,0.5,0.4,1-0.3,1.5c-0.4,1.3-1.5,2.7-2.2,3.9
				c-0.1,0.2,0,0.5,0.2,0.5c2.1,0,4.2,0.1,6.3,0.1c0.9,0,1.8-0.1,2.6,0c0.3,0,0.5,0,0.6,0c-0.1,0.1-0.2,0.2-0.2,0.4
				c-0.3,1-1.1,1.5-1.3,2.6c-0.2,0.9-0.1,1.7,0.1,2.5c0.9,3.2,4.6,4.2,7.3,2.8c-1.5,2.7-2.1,5.6-1.8,8.7c0,0.1,0.1,0.2,0.3,0.3
				c1.8,0.3,3.3,0.6,4.8,1.7c1.6,1.2,2.9,2.9,4,4.6c1.8,2.9,2,5.9,3.1,9.1c0.6,1.8,1.5,2.5,3.3,2.8c0.6,0.1,0.8,0.1,1.1,0.2
				c0.4,0.2,0.4,0.5,0.8,0.6c0.4,0.1,0.7-0.1,1-0.2c1,0,1.8,2.5,2,2.8c1.5,4.3,9.6,5.7,10.6,5.9
				C220.3,190.1,225.1,187.8,225.1,187.5z"/>
			<path id="XMLID_127_" d="M134.4,103.9c-8.4,0.8-17,3.5-23.8,8.7c-0.1,0.1-0.1,0.4,0.1,0.4c7,1.9,15.4,2.5,22.4-0.1
				c0.2-0.1,0.1-0.3-0.1-0.3c-3.9,0.7-7.6,1.5-11.5,1.5c-2,0-3.9-0.2-5.8-0.5c-0.9-0.1-2-0.2-2.8-0.6c-1.4-0.6-1.2-0.6,0.1-1.5
				c6.5-4.4,14-5.9,21.6-7.3C134.7,104.2,134.6,103.8,134.4,103.9z"/>
			<path id="XMLID_125_" d="M195.4,182.6c0.1,0.8-0.2,1.4-0.4,1.7c-1,1.5-4.1,1.8-5.8,0.3c-1.7-1.4-1.8-4.3-0.8-5.8
				c0.5-0.8,1.5-1.4,1.3-2.1c-0.1-0.3-0.4-0.8-0.6-0.6c-0.8,0.8-1.6,1.6-2.6,2.2c-2.6,1.8-2.7-0.7-1.8-2.8c0.1-0.2-0.1-0.6-0.4-0.6
				c-5,0-7-5.8-3.5-8.8c0.4-0.2,0.8-0.5,1.1-0.8c0.4-0.3,0-1-0.5-0.7c-0.4,0.2-0.8,0.5-1.2,0.8c-2.3,1.4-5.2,2.3-7.5,0.5
				c-1.7-1.3-2.4-4.5-0.7-6c0.7-0.5,1.3-1,2-1.5c-1.7,0.7-3.2,1.2-4.3,1.7c-2.6,1-3,1.1-3.5,0.9c-1.2-0.5-0.7-4.2,0.6-6.7
				c0.2-0.4,0.5-0.8,0.6-1c-0.4,0.4-1,0.9-1.7,1.6c-2.1,2-4.3,4-5.1,4.7c-5.5,4.9-12.2,7.9-14.7,8.7c-0.7,0.2-0.8,0.3-3.4,0.9
				c-0.3,0.1-2.3,0.6-2.6,0.5c-1.1-0.7,0.6-4.3,1.2-5.7c0.4-0.9,0.6-1.4,0.9-1.8c1.2-1.7,2.4-1.9,3.6-3.8c0.4-0.6,0.7-1.3,0.6-1.4
				c-0.2-0.2-1.7,2.4-4.5,4.4c-1.3,0.9-2.3,1.4-4.4,2.2c-3,1.2-4,1.2-4.8,1c-3.3-0.6-2.5-3.9-1.9-5.9c0.3-1.1,0.8-2,1.3-2.9
				c1.2-1.4,2.3-2.7,3.5-4.1c-1.3,1.2-2.7,2.3-4,3.5c-1.5,1.5-3.3,2.8-5.4,3.4c-4.3,1.1-8.9-1.5-8.1-6.4c0.7-3.9,3.9-6.9,6.7-9.5
				c0.8-0.8,1.7-1.5,2.6-2.2c3.5-2.5,4.2-3.1,4.2-3.1c-0.1-0.1-2.8,2-6.7,3.3c-5.8,1.9-11.4,1-12.5-0.7c-0.3-0.5-0.5-1.2-0.4-2.1
				c0.1-1.7,0.5-1.9,1.8-2.8c0.7-0.5,1.5-1,2.2-1.5c1.8-1.2,3.2-2.2,4.8-3.3c1.7-1.2,5-3.1,11.6-6.6c1.4-0.3,2.8-0.6,4.2-1
				c0.3-0.1,0.2-0.5-0.1-0.4c-4.7,0.9-9.5,2-14.2,3.1c-2.5,0.6-5.1,1.1-7.6,1.7c-0.9,0.2-2,0.5-2.9,0.4c-0.7-0.1-1.2-0.3-1.5-0.7
				c-0.9-1.1-0.2-3.1,0.8-4.3c0.6-0.6,1.2-0.9,1.4-1c4.1-1.9,4.5-3.3,9.7-5.4c0,0,6.3-2.5,10.5-1.8c0.7,0.1,1.3,0.2,1.9,0.7
				c0.6,0.5,1.3,1.7,1.5,1.7c0,0,0,0,0,0c-1.3-4.8-8.2-2.5-11.4-1.6c-4.6,1.2-9.2,3.1-12.7,6.3c-5.4-0.9-10.7,0.7-16.1,0.4
				c-5.6-0.3-11-2.2-16.6-2.4c-5.2-0.2-10.5,0.6-15.6,1.5c-2.9,0.5-5.8,1.1-8.8,1.6c-1.7,0.3-3.4,0.7-5,0.3
				c-1.9-0.5-3.3-1.9-4.6-3.3c-0.2-0.2-0.5,0.1-0.3,0.3c1.3,1.5,2.7,3.1,4.7,3.7c2.2,0.6,4.8-0.2,6.9-0.5c6.2-1.1,12.3-2.5,18.6-2.8
				c6.4-0.3,12.3,1.5,18.6,2.2c5.9,0.7,11.7-0.9,17.7-0.4c-0.3,0.3-0.5,0.5-0.8,0.8c-0.9,1-2.4,2.6-1.6,4.1c0.2,0.4,0.5,0.6,0.8,0.8
				c-12.6,0-24.7,3.2-36.8,6.1c-12.1,3-25.4,6.5-37.7,2.5c-0.3-0.1-0.4,0.3-0.2,0.4c13.9,5.1,34.8-1.6,34.8-1.6
				c9.6-2.9,23.1-5.9,40.5-7.2c0.8,0.2,1.8,0.2,2.5,0.1c3.8-0.5,7.7-1.6,11.5-2.5c1.5-0.3,3-0.7,4.5-1c-0.5,0.3-1,0.6-1.5,0.9
				c-2.5,1.6-5,3.3-7.5,5c-2.5,1.7-5.3,3.2-7.6,5.1c-1,0.9-1.7,1.9-1.4,3.3c0.1,0.8,0.5,1.4,0.9,1.9c-14.5,2.6-28.9,5.5-43,9.8
				c-6.9,2.1-13.7,4.6-20.3,7.6c-3.2,1.4-6.4,3-9.8,4c-3.8,1.2-12.8,3.3-12.6-3.5c0-0.2-0.3-0.3-0.3,0c-0.5,6.7,8.1,5.5,12.1,4.3
				c7.7-2.3,14.9-6.3,22.5-9.1c16.8-6,34.3-9.3,51.8-12.8c1.4,1.2,3.8,1.5,5.8,1.5c-6.6,4.3-14,7-21.3,9.7
				c-20.3,7.7-19.2,8.9-22,10.1c-10.8,4.5-20.4,7.8-29.9,12.1c-1.8,0.8-2.3,1.1-3.5,1.5c-2.2,0.8-11.4,3.8-13.2,4.3
				c-0.1,0-0.5,0.1-0.6,0.4c0,0-0.1,0.3,0.1,0.2c8.3-1.8,16.4-5.1,24.3-8.1c8-3.1,15.9-6.2,23.6-10.1c7.2-3.6,14.4-7.1,21.9-9.9
				c-5.5,3.6-11.1,7-16.8,10.2c-6.1,3.4-12.6,6.4-18.6,10.1c-5.4,3.3-10.2,7.5-15.3,11.2c-6.1,4.5-13.1,7.7-19.6,11.5
				c-0.2,0.1,0,0.3,0,0.3c0.2,0.2,0.6,0,0.8-0.1c10-4,17.9-10.3,17.9-10.3c6.3-5.1,10.9-8.7,17.3-12.5c6.1-3.6,12.5-6.6,18.7-10.1
				c6-3.4,11.9-7.1,17.5-11c6.9-2.6,13.7-5.3,19.9-9.5c0.3,0,0.7,0,1-0.1c1.7-0.2,3.5-0.6,5.2-1.2c-1.5,1.3-2.9,2.7-4.3,4.1
				c-0.7,0.8-1.5,1.8-2.1,2.8c-18.2,11.1-33,21.4-44,29.7c-29.8,22.2-36.1,31.8-38,33.2c-0.1,0.1-1,0.7-0.9,1c0,0.1,0.2,0.1,0.3,0.1
				c15.4-15.1,28.9-26.2,38.9-33.7c9.6-7.3,19-13.6,22.4-16c8-5.4,15.1-9.9,20.7-13.4c-0.4,0.6-0.9,1.8-1.1,3.4
				c-0.1,1.2,0,2.3,0.5,3.5c0,0,0,0,0,0c-4,6.2-11.5,8.5-17.1,12.8c-6.9,5.3-13.2,11.4-19.8,17.1c-5.8,5.1-12.2,9.9-17.1,16
				c-5.4,6.5-9.6,13.8-15.3,20.2c-0.2,0.2,0.2,0.5,0.4,0.3c5.7-6.1,9.8-13.3,15-19.7c5.4-6.6,12.6-12,19-17.6
				c6.4-5.5,12.6-11.6,19.4-16.6c5.3-3.9,12-6.2,15.8-11.8c1,1.6,2.8,2.4,4.6,2.7c-5.4,6.9-13,12.2-19.7,17.9
				c-3,2.6-6.1,5.1-8.4,8.3c-2.3,3.2-4.4,6.6-6.7,9.8c-9.5,12.7-21.4,23.5-29.3,37.3c-0.2,0.3,0.3,0.6,0.4,0.3
				c8.1-13.7,19.9-24.5,29.4-37.2c2.4-3.2,4.4-6.6,6.7-9.8c2.7-3.6,6.2-6.4,9.5-9.3c6.4-5.4,13.7-10.5,18.7-17.2c0.7,0,1.3,0,2-0.1
				c1.9-0.3,3.5-1.2,5-2.3c-0.3,0.7-0.6,1.5-0.8,2.3c-0.4,1.5-0.5,3.4,0.3,4.6c-5.9,4.8-10.6,11-15,17.1c-5.1,6.9-10.1,14-15.4,20.7
				c-5.1,6.5-11.1,12.4-16.1,19.1c-5.4,7-13.9,19.3-12.3,20.7c0.1,0.1,0.4,0.1,0.5,0.1c2.7-5.8,6.6-13,12.2-20.5
				c5.5-7.4,7.7-8.2,15.9-18.6c5-6.3,9.8-12.9,14.6-19.4c4.9-6.7,9.8-13.2,16.1-18.7c0.4,0.4,0.9,0.7,1.7,0.8c2.8,0.5,6.4-1,8.9-2.5
				c-1,2.1-1.7,4.4-2,6.7c0,0,0,0,0,0c-5.6,6.8-11.2,13.7-18.1,19.3c-3,2.4-6.1,4.6-8.8,7.4c-2.7,2.9-4.9,6.3-7.1,9.6
				c-4.5,6.9-8.6,14-12.5,21.2c-4.1,7.6-8.3,15.4-11.5,23.4c0,0.1,0.1,0.2,0.2,0.1c4.1-7.1,7.3-14.7,11.2-22
				c4.1-7.8,8.5-15.5,13.4-22.9c2.3-3.4,4.6-6.9,7.5-9.7c3-2.9,6.5-5.2,9.6-8c6-5.3,11.2-11.4,16.2-17.6c0.1,0,0.1,0,0.2,0
				c3-0.4,5.9-1.1,8.7-2.1c-17.5,19.8-29.3,43.7-35,69.4c-1.5,6.6-2.8,13.3-5.1,19.7c-1.2,3.2-2.6,6.4-4.5,9.3
				c-0.5,0.8-0.9,2.8-2.6,3.6c-0.1,0.1-1.3,0.5-2.5,0.1c-1.1-0.4-1.3-1.2-3.3-3.7c-1.3-1.6-1.5-1.5-1.7-2.2
				c-0.4-1.2,0.3-3.7,0.5-4.9c0.6-4.2,1.7-8.3,3-12.3c2.3-7.1,5.3-14,8.2-20.9c6-14.9,11.5-30,22.3-42.1c0.1-0.1,0-0.1-0.1-0.1
				c-10.5,9.5-15.5,23.8-20.7,36.5c-5.8,14.2-13.5,29-13.8,44.7c0,0.1,0.1,0.3,0.2,0.3c2.6,0.9,2.9,6.4,6.2,6.2
				c2.7-0.1,5-5.2,6.1-7.2c3.8-6.9,5.6-14.6,7.3-22.3c4-17.8,9.6-34.7,18.9-50.5c5.1-8.6,11-16.7,17.7-24.2
				c6-2.4,11.4-6.1,15.8-11.1c-0.3,1.5-0.2,3.1,0.3,4.7c0.1,0.2,0.3,0.3,0.5,0.2c1.8-0.2,3.6-0.7,5.2-1.4c-0.7,1.5-0.6,3.4,0.4,4.9
				c1.8,2.8,5.1,2.6,7.8,1.5c-1.1,1.7-1.2,3.9,0,5.9c1,1.7,2.4,1.8,3.9,2.7c1.2,0.8,0.5-0.2,0.8,0.3c0,0-0.2,1.6-0.2,1.6
				c0,0.9,0.4,1.7,0.8,2.4c0.1,0.2,0.3,0.3,0.6,0.2c1.1-0.6,2.1-1.2,3.1-1.9c-1.3,3.7,0,7,2.2,7.9c2.1,0.8,5.4-0.5,5.7-2.2
				C195.8,183.7,195.8,183.2,195.4,182.6z"/>
			<path id="XMLID_124_" d="M247.6,191.6c-0.1-0.1-0.3-0.9-1.1-1.2c-0.8-0.3-1.8,0-2.6,0.7c1.5-0.3,2.8,0.2,3.2,1
				c0.4,1-0.6,2.2-0.9,2.6c-1.5,1.7-3.8,1.7-4.5,1.7c-0.7,0-3.8,0.1-5.5-2.2c-0.6-0.8-0.8-1.6-0.9-2.1c-0.5,3.5-1.9,6.2-3.9,6.6
				c-1,0.2-2.3-0.1-3.3-0.7c-1.2-0.7-2.3-1.7-3.7-2c-1.9-0.4-3.5,0.5-5.3,0.9c-3.5,0.7-8.1-1-7.3-5.4c0-0.2-0.2-0.4-0.4-0.3
				c-4.1,2.3-9-0.1-10.3-4.4c0-0.1-0.2-0.1-0.1,0c0.5,3.5,3.9,6,7.4,5.9c0.7,0,1.4-0.3,2.1-0.4c1.1,0,0.5-0.2,0.8,1
				c0.3,1.6,1.4,3,2.9,3.7c2.1,1,4.3,0.7,6.5,0.1c2.3-0.6,3.8-0.8,5.9,0.5c0.8,0.5,1.6,1.2,2.6,1.5c3.8,1.4,5.7-2,6.5-5.1
				c1.4,3.5,7.7,3.8,10.5,1.8C247.4,195,248.3,193.2,247.6,191.6z"/>
			<path id="XMLID_123_" d="M218.3,199.5c-3.9,4-6.3,9-12.2,10.6c-1.5,0.4-3.2,0.5-4.8,0.5c-1.1-0.1-3.7-0.1-4.6-0.8
				c-0.9-0.7-1.5-2.9-1.3-3.9c0.1-0.5,0.5-1.1,0.6-1.6c0.2-0.6,0.2-1.1,0.1-1.8c0-0.2-0.2-0.3-0.4-0.3c-1.5,0.2-3.4,0.8-4.9,0.7
				c-1.1-0.1-1.3,0.2-1.8-1c-0.3-0.7-0.3-1.9-0.4-2.7c-0.4-2.7-2.2-8.4,0.6-10.3c0.2-0.1,0-0.4-0.2-0.3c-1.7,0.7-2,2.2-2,4
				c0,3.6,1,7.4,1.4,11c0,0.2,0.2,0.3,0.4,0.3c1.3-0.2,2.6-0.4,4-0.6c1.5-0.2,2.5-0.8,2.2,1.3c-0.1,1.3-1.2,2.3-0.9,3.6
				c0.6,2.7,5,2.9,7,3C208.8,211.6,215.4,206.3,218.3,199.5C218.4,199.5,218.3,199.5,218.3,199.5z"/>
			<path id="XMLID_122_" d="M171.1,183.1c-3.3,4.9-6,12.7-11.6,15.6c-2.8,1.5-6.6,1.4-8.4-1.5c-2.4-3.8,0.5-8,3.2-10.7
				c0.2-0.2,0.1-0.5-0.2-0.5c-4.2-0.6-8.6-1.9-8.8-7c-0.1-3.9,2.4-6.9,4.8-9.7c0,0,0-0.1,0,0c-3.6,3.4-7.8,9.7-3.6,14.3
				c0.7,0.8,1.7,1.4,2.7,1.9c0.5,0.2,4,1,4.1,1.1c0.1,0.4-2.3,3-2.5,3.5c-0.6,1-1,2.1-1.1,3.3c-0.6,5.2,4.2,8.1,8.9,6.5
				c2.9-1,4.9-3.4,6.6-5.8c2.4-3.4,4.7-7,6.3-10.8C171.5,183,171.2,182.9,171.1,183.1z"/>
			<path id="XMLID_121_" d="M195.1,222.7c-1.3,1.7-3.1,4.3-5.5,4.3c-3.3,0.1-4-2.5-4.1-5.2c-0.1-2.3,0-4.5-1.3-6.5
				c-0.2-0.2-0.5-0.1-0.6,0.1c-0.9,2.2-1.9,5-4.2,6c-4.5,1.9-6.3-3.1-5.9-6.4c0.3-2.6,1.2-5.3,2.3-7.8c1.3-1.5,2.4-3.3,2.8-5.1
				c0.1-0.3-0.4-0.7-0.6-0.3c-1.1,1.7-2,3.4-2.8,5.2c-2.4,2.7-5.8,4.4-9.4,3.8c-5.3-0.9-0.9-7.2,0.6-9.7c1.5-2.6,3.2-5.1,5-7.5
				c0-0.1,0-0.1-0.1-0.1c-3,3.7-5.6,7.6-7.8,11.7c-1.2,2.3-2,4.7,1.1,5.9c3.5,1.3,7.2-0.1,10-2.6c-0.5,1.3-1,2.7-1.4,4.1
				c-0.7,2.6-1.1,5.6,0.6,7.9c1.2,1.6,3,2.5,5,1.9c2.8-0.8,4.1-3.4,5.1-5.9c1.4,3.3-0.7,8.7,3,10.7c3.5,2,6.8-1.5,8.7-4.2
				C195.8,222.8,195.3,222.4,195.1,222.7z"/>
			<path id="XMLID_120_" d="M184.5,237.3c-0.4,0.4-0.8,0.8-1.1,1.2c-2.2,1.4-5.1-1-5.5-3.5c-0.1-0.8,0.7-7.3,2-6.6
				c0,0,0.1,0,0.1-0.1l-0.1-0.3c0-0.1-0.1-0.1-0.1-0.1c-2.9-0.2-2.8,7.1-2,8.8c0.9,2.1,3.1,3.3,5,2.8c-2.9,4.5-2,10.5,2.9,13.6
				c0.3,0.2,0.6-0.2,0.3-0.4c-4.6-3.4-5.7-9.3-2.2-13.6c0.5-0.3,0.9-0.7,1.3-1.3C185.1,237.4,184.7,237,184.5,237.3z"/>
			<path id="XMLID_119_" d="M117.4,108.2c-3.5-2.7-8-3.6-12.3-4.3c-4.9-0.8-10.4-1.9-17.6-2.4c-8.3-0.6-12.5-0.9-17.4-0.9
				c-1.4,0-4.6,0.1-8.8-0.6c-2.4-0.4-4.4-1-5.7-1.4c-0.2-0.1-0.4,0-0.4,0.1c0,0.1,0.1,0.3,0.3,0.3c4.4,1.5,8,1.9,10.4,2.1
				c2.9,0.2,4.1-0.1,8.7,0c3.4,0.1,5.8,0.3,8.6,0.5c9.1,0.8,13.6,1.7,17.5,2.3c5.7,0.9,11.4,1.6,16.3,4.8
				C117.4,109,117.7,108.5,117.4,108.2z"/>
			<path id="XMLID_118_" class="st20" d="M127.2,184.8C127.2,184.8,127.2,184.7,127.2,184.8L127.2,184.8z"/>
			<path id="XMLID_117_" d="M150.2,198.1c-10.3,10.4-18.2,23.4-23.1,37.1c-2.6,7.1-4.4,14.5-6.7,21.7c-1.1,3.6-2.4,7.1-3.9,10.6
				c-0.9,2.1-2,4.2-3.1,6.2c-0.5,0.8-0.9,1.6-1.4,2.3c-0.4,0.6-0.9,1.1-1.4,1.6c-0.3,0.3-0.8,0.7-1.6,1c-1,0.4-1.9,0.2-2.4,0.1
				c-0.1-0.2-0.4-1-0.7-1c-0.2,0-0.3,0.6-0.2,1c0.3,0.9,2.1,1,3,0.8c2.9-0.8,4.6-4.3,6-6.7c4.4-8.1,6.9-17.1,9.5-26
				c2.6-8.9,5.6-17.6,10-25.7c4.5-8.3,10.1-15.7,16.4-22.6C150.8,198.2,150.4,197.9,150.2,198.1z"/>
			<path id="XMLID_116_" d="M163.1,209.3c-0.2-0.1-5,8.3-8.9,19.9c-2,5.9-1.6,6.2-6.3,24.3c-2.1,8.1-4.4,16.1-7.7,23.8
				c-2.5,5.7-3.5,9.4-7,11.4c-2.6,1.4-7.5,2.6-11.9,1.9c-0.7-0.1-1.7-0.3-1.7-0.2c0,0.2,3.8,2,7.4,1.7c2.3-0.2,5.5-1.2,9.6-6.2
				c5.9-7,7.6-14.7,9.8-24c3.4-14,5.1-21,6.8-26.7C158,219.5,163.3,209.4,163.1,209.3z"/>
			<path id="XMLID_115_" d="M164.2,195c-4.4,7.8-8.3,15.9-12.9,23.7c-4.3,7.2-9.1,14.1-12.1,22c-3.1,8.1-5.4,16.5-7.6,24.9
				c0,0-6.4,23.2-11.7,23.5c-0.3,0-2,0-2,0.2c0,0.1,0.7,0.3,1.3,0.4c1.7,0.1,3.1-1.2,3.5-1.6c6.1-5.7,8.3-17.2,8.3-17.2
				s2.4-11.7,7.6-26.6c3.1-9,8.2-16.7,13-24.8c4.6-7.8,9.5-15.9,13.1-24.3C164.8,195,164.3,194.7,164.2,195z"/>
			<path id="XMLID_114_" d="M174.3,220.9c-10.9,10.2-14.8,25.4-17.2,39.6c-1.5,9-2.6,18.1-5.1,26.9c-1.1,3.9-2.3,8.5-5,11.7
				c-3.1,3.6-8.1,4.9-12.6,3.7c-0.5-0.1-0.8,0.6-0.3,0.7c6.2,1.7,12.5-1.1,15.4-6.8c4-7.8,5.3-17.4,6.7-25.9
				c2.8-17.5,5.2-36.2,18.3-49.4C174.8,221,174.5,220.7,174.3,220.9z"/>
			<path id="XMLID_113_" d="M179.5,238.4c-0.2-0.1-2.8,2.5-4.1,6.1c-1.3,3.5-2.5,7.2-3.5,10.8c-2,7-3.7,14-5.1,21.2
				c-1.4,7.4-2.3,14.9-3.4,22.4c-0.5,3.6-1.2,7.3-2.8,10.7c-0.7,1.6-1.6,3.1-2.8,4.5c-0.7,0.8-1.4,1.6-2.2,2.2l-0.6,0.5
				c-0.8,1-1.7,1.1-2.7,0.3c0,0.1-0.1,0.1-0.1,0.3c-0.2,0.3-0.3,0.3-0.3,0.4c-0.1,0.3,0.9,0.8,1.3,0.9c1.6,0.5,4.4-2.6,6.4-5.5
				c4.4-6.5,4.7-14.8,5.7-22.3c1.3-9.2,2.9-18.3,5.1-27.3c1.3-5.2,2-8.7,3.6-12.9C176.6,243.5,179.8,238.6,179.5,238.4z"/>
			<path id="XMLID_112_" d="M182.3,248.8c-0.4-0.1-1.4,2.9-1.9,4.8c-0.8,3-1.1,5.4-1.4,8.3c-0.8,6.3-1,12.6-1.9,18.9
				c-1,6.8-3.3,12.6-6.1,18.8c-2.7,5.9-3.3,12.5-6.1,18.5c-0.1,0.2,0.2,0.4,0.3,0.2c2.9-4.9,3.4-10.7,5.4-16
				c2.1-5.6,5-10.7,6.3-16.6c0.6,2.6,0.4,5.1-0.1,7.6c-0.5,2.9-0.8,3.4-1.9,7.6c-1.4,5.6-2,13.3-0.3,14.4c0.1,0,0.5,0.3,0.6,0.2
				c0.2-0.2-0.7-1.3-1.1-2.1c-1-2-0.2-4.2,0.3-5.5c1.1-3.4,1.1-7.1,2.1-10.5c1.2-4.2,2.2-8.8,0.6-13c1-5.4,1.4-10.8,1.9-16.3
				c0.3-2.9,0.8-5.8,1-8.7c0,0,0.4-7.4,1.9-8.8c0.1-0.1,0.6-0.5,0.6-1.1C182.5,249.1,182.4,248.8,182.3,248.8z"/>
		</g>
		<g id="XMLID_9_">
			<path id="XMLID_143_" d="M371.6,68.9c-3-0.4-7.1-0.5-9.7,1.2c-0.1,0.6-0.6,1-1.3,1.3c-0.6,0.1-1.2,0.2-1.8,0.3
				c-0.6,0.1-1.2,0.3-1.8,0.5c-2.1,0.7-3.9,1.8-5.6,3.2c-0.1,0.1-0.2,0.3,0,0.4c1.1,1.2,0.2,1.3-0.9,2.2c-1,0.7-1.9,1.6-2.7,2.4
				c-0.8,0.9-1.6,1.8-2.3,2.8c-0.9,1.3-2.1,2.4-2.9,3.7c-0.6,0.9-0.2,0.7-0.2,1.4c-0.2,2.8-4.2,5.7-6.2,7.6
				c-0.1,0.1-0.1,0.4,0.1,0.4c1.6,0.2,1.2,0.4,0.4,1.3c-0.8,1-1.6,2-2.3,3.1c-1.2,1.9-2.2,4-2.7,6.3c0,0.2,0.2,0.2,0.2,0.1
				c1.4-4.1,3.4-7.6,6.6-10.6c0.1-0.1,0.1-0.4-0.1-0.4c-2.6-0.3,0.8-2.4,1.7-3.3c1.2-1.3,2.2-2.6,3.3-3.9c0.1-0.1,0-0.2,0-0.3
				c-0.8-1.1,0-1.5,0.7-2.4c0.7-0.8,1.3-1.7,1.9-2.6c2-2.7,4.4-4.9,7.2-6.7c0.2-0.1,0.1-0.4,0-0.5c-2-1.4,3.2-3.3,4.2-3.7
				c1.5-0.5,3.5-0.4,4.9-1.3c0.2-0.1,0.1-0.3,0.2-0.4c0.5-0.4,1-0.9,1.7-1.2c2.3-0.8,5.2-0.7,7.6-0.8
				C371.7,69.1,371.8,68.9,371.6,68.9z"/>
			<path id="XMLID_142_" d="M336.8,76.7c-0.9,0.6-4.7,2.4-4.4,3.7c0.1,0.3,1,0.6,1,0.7c0,0.1-2.1,1.1-2.3,1.3
				c-1.6,1.8,0.5-0.1-0.4,1.4c-0.9,1.5,0.2,0.5-1.2,1.2c-0.4,0.2-0.9,0.3-1.3,0.5c-2.7,1-4.9,2.8-6.8,4.9c-0.1,0.2,0,0.4,0.2,0.4
				c2,0.1,0.6,0.4-0.2,1.3c-0.5,0.6-1,1.2-1.4,1.8c-0.7,1.3-0.9,2.6-0.8,4.1c0,0.3,0.5,0.2,0.5-0.1c-0.3-3.2,1.6-5.4,4.1-7.1
				c0.2-0.1,0.1-0.5-0.2-0.5c-1.6-0.2-0.9-0.6-0.1-1.5c0.6-0.6,1.4-1.1,2.1-1.5c1.7-1.1,3.6-1.8,5.6-2.2c0.1,0,0.2-0.1,0.2-0.3
				c0.1-1.7,1.1-2.9,2.7-3.6c0.2-0.1,0.2-0.4,0-0.5c-1.9-1,2.2-3.4,3-4C337.3,76.9,337,76.6,336.8,76.7z"/>
			<g id="XMLID_137_">
				<path id="XMLID_141_" d="M316.1,63.4C316.1,63.4,316.1,63.3,316.1,63.4C316.1,63.2,316,63.1,316.1,63.4z"/>
				<path id="XMLID_140_" d="M316.9,58.9c-0.2,0.9-0.1,0.5-0.2,1.5c0.3,1.1,0,2-0.6,2.9c0.1,0.3,0.4,1,0.7-0.1
					c0.4-1.5,0.1-2.7,0.3-4.3C317.1,58.9,317,58.8,316.9,58.9z"/>
				<path id="XMLID_139_" d="M309.6,89.8C309.6,89.8,309.6,89.7,309.6,89.8C309.5,89.8,309.5,89.8,309.6,89.8z"/>
				<path id="XMLID_138_" d="M315.6,64c-0.2,1.2,0.3,0.8,0.6,1.9c0.5,1.6-1.5,4.5-1.8,6.2c-0.1,0.8,0.1,2.6-0.7,2.9
					c-0.1,0.1-2.1-0.6-2.4-0.6c-0.2,0-0.4,0.3-0.2,0.5c0.4,0.4,2.5,3.3,2,3.7c-0.6,0.6-2.5-0.6-3-0.9c-0.2-0.1-0.4,0.2-0.2,0.3
					c0.7,0.7,2.6,2.3,2.4,3.3c-0.1,0.8-0.4,0.7-1,1.2c-1.1,1-1.8,1.7-2.2,3.2c0,0.1,0,0.2,0.1,0.3c0.6,0.6,1.9,1.9,1.5,2.8
					c-0.1-0.1-0.8,0.7-1,0.9c-0.1,0.1,0,0.2,0,0.3c1.2,1.3,2.2,2.6,0.2,5c-0.4,0.5-0.8,0.4-1,1c-0.3,0.9,0.3,2,0.5,2.8
					c0.5,1.9,0.3,4.3,1,6.2c0.3,0.9,1.1,1.2,1.5,2.1c0.2,0.4,0.7,0.1,0.6-0.3c-0.4-1.1-0.1,0-0.8-1c-0.8-1.2-0.8-2-1-3.3
					c-0.2-1.3-0.4-2.5-0.7-3.7c-0.5-1.9-0.6-1.4,0.8-3.6c0.5-0.8,1-1.1,1-2.1c0-0.3-0.1-0.6-0.1-0.9c-0.1-0.3-1.7-2.7-0.4-2.5
					c0.2,0,0.3-0.1,0.3-0.3c-0.3-1.2-1.2-2-1.5-3.1c-0.7-2.3,0.9-2,2.2-3.7c0.1-0.1,0.4-0.2,0.5-0.4c0.2-0.9-0.4-1.7-0.9-2.5
					c-0.3-0.5-0.9-1.2-1-1.1c0.2-0.1,1.8,0.9,2.3,1.1c0.1,0,0.2,0,0.3-0.1c0.5-0.6,0.3-1.1,0-1.9c-0.2-0.5-0.7-1.2-0.8-1.7
					c-0.3-0.2-0.5-0.5-0.5-0.9c0.8,0.1,1.5,0.4,2.2,0.8c0.1,0.1,0.3-0.1,0.3-0.2c0.1-2.3,0.3-4.6,1.4-6.7c0.5-1,1-1.5,1-2.7
					c0-0.1-0.6-1.4-0.4-0.7c-0.2-1.3-0.4-1.9-0.4-2.2c0,0,0,0.1-0.1,0.1C315.9,63.6,315.7,63.8,315.6,64z"/>
			</g>
			<path id="XMLID_136_" d="M331.8,57.9c-1.8,1.7-2.9,3.8-4,6c-0.6,1.1-1.5,2.3-1.8,3.5c-0.3,1.3,0.1,2.7-0.2,4.1
				c-0.5,2.3-3.1,2.8-3.9,5c-0.5,1.5-0.6,3.2-1,4.8c-0.5,2-1.2,3.9-1.9,5.8c0,0.1,0,0.3,0.1,0.4c1.6,1.7,0.2,2.6-0.3,4.3
				c-0.6,2.1-0.4,4.4-0.9,6.6c-0.1,0.4,0.6,0.6,0.7,0.2c0.7-3.1-0.1-6.8,2.5-9.2c0.1-0.1,0.2-0.3,0.1-0.4c-0.4-0.8-1.1-1.6-1-2.6
				c0.1-1.4,1.1-3,1.4-4.4c0.8-3,0.8-7.3,4.4-8.3c0.2,0,0.3-0.2,0.3-0.3c0.3-1.3,0.4-2.5,0.4-3.8c0.1-1.8,0.3-2.5,1.1-4.1
				c1.3-2.6,2.2-5.3,4.4-7.4C332.2,58.1,332,57.8,331.8,57.9z"/>
			<path id="XMLID_135_" d="M301.3,61.6c-1.3,2.9-3.6,6.4-4.1,9.6c-0.2,1.2,0.2,2.2,0.6,3.3c0.4,1.1,0.9,1.9,0.6,3.2
				c-0.3,1.3-1.3,2.2-2.2,3.2c-0.2,0.2,0,0.4,0.2,0.5c1.7,0.3-1.4,2-1.8,2.3c-0.5,0.4-2,1.3-2.3,1.9c-0.2,0.5-0.4,0.4-0.2,1
				c0.2,0.4,0.7,0.5,1,0.7c0.2,0.1,0.4,0.2,0.7,0.3c0.7,1.2,0.6,1.8-0.5,1.8c-1.1,0.9-2.2,1-3.2,2.3c-0.1,0.2,0,0.5,0.2,0.5
				c2.3,0.2,4.7,0.6,7,1c-0.5,0.8,0.3,2.3,0.5,3.2c0.2,0.8,0.6,1.6,0.7,2.4c0.1,1,0,1-0.6,1.6c-0.6,0.7-1,1-1.4,1.8
				c-0.1,0.2,0.1,0.5,0.3,0.5c1.8,0.1,3.1,0.6,4.5,1.7c0.3,0.3,0.7-0.3,0.4-0.6c-0.8-0.7-1.6-1.2-2.6-1.6c0.1,0-1-0.3-0.9-0.2
				c-0.6,0-0.6-0.2,0.1-0.7c0.2-0.5,0.6-0.8,1.2-0.9c0.1,0,0.3-0.3,0.2-0.4c-0.1-0.4-2.3-6.7-1.5-6.9c0.4-0.1,0.4-0.6,0-0.7
				c-1.3-0.2-2.6-0.4-3.9-0.6c-1.2-0.2-4.1,0.1-2.2-1.4c0.9-0.7,3-0.3,3.4-1.5c0.3-0.8-0.4-1.2-0.8-1.8c-0.1-0.2-0.6-0.2-0.7-0.3
				c-1.2-1.5-0.3-1.7,0.6-2.5c1.1-0.9,2.3-1.8,3.5-2.6c0.2-0.1,0.1-0.4,0-0.5c-1.9-1.1,0.4-1.8,0.9-3.3c0.3-0.8,0.1-1.4-0.1-2.2
				c-0.3-1-1-2-1.1-3.1c-0.3-1.7,0.4-3.1,1.1-4.5c0.9-2.2,1.8-4.3,2.7-6.5C301.7,61.5,301.4,61.4,301.3,61.6z"/>
			<path id="XMLID_133_" d="M298.1,106.2c-1.6-0.8-1.4-3.7-2.2-5.2c-1-2-1.9-3.2-2.3-5.4c0-0.3-0.3-0.4-0.5-0.3
				c-1,0.6-2.1,0.5-3.1-0.4c0-0.2-0.1-0.5-0.1-0.7c-0.2-0.1-0.2-0.5-0.5-0.6c-0.7-0.3-2.4,0.5-2.9,0.7c-0.5,0.2-1,0.4-1.5,0.7
				c0,0-1.7,1.5-1.7,1.5c-1.2-0.2-1.7-4.3-2.2-5.3c-0.4-0.8-1.1-1.6-2-1.9c-0.3-0.1-0.5-0.1-0.7-0.1c-0.4-0.6-1-1.4-1-1.9
				c0-0.8,0.6-0.9,1.5-0.3c0.2,0.1,0.4,0,0.5-0.2c1-2.5,2.3-5.2-0.9-6c-0.4-0.1-2.9-0.3-3-0.6c-0.1-0.4,1.8-1.3,2-1.5
				c0.4-0.6,0.9-0.7,0.4-1.5c-0.8-1.3-3.7,0.5-1.1-1.7c0.8-0.6,2.5-1,2.7-2.1c0.2-1.3-1.5-3.4-2-4.6c-0.7-1.7-1.1-2.1,0.7-2.8
				c1.1-0.5,2.6-0.5,3.8-0.8c0.2,0,0.3-0.3,0.2-0.4c-0.9-1.1-2.5-2.5-1.2-3.6c0.7-0.6,1.7-1,2.4-1.6c0.2-0.1,0-0.4-0.2-0.3
				c-1.1,0.9-2.2,1.6-3.5,2c-0.1,0-0.1,0.2-0.1,0.3c0.3,0.6,1.7,2.6,1.5,3.1c-0.3,0.8-4.2,1-4.9,1.2c-0.2,0-0.2,0.2-0.2,0.4
				c0.4,1.3,0.9,2.6,1.4,3.8c0.5,1,1.9,2.6,1.3,3.7c-0.2,0.4-1.8,1-2.3,1.4c-0.7,0.6-1.3,1.2-1.8,1.9c-0.1,0.2,0,0.5,0.2,0.5
				c0.6,0,2.1-0.2,2.2,0.8c0,0.2-2.4,1.6-2.5,1.7c-0.2,0.2-0.1,0.5,0.1,0.6c2.2,1,5.3,0.2,4.9,3.6c-0.3,2.8-1.2,1-2.9,1
				c-0.2,0-0.3,0.1-0.4,0.2c0,0,0,0,0,0c-1.5-0.3-2-2.8-2.6-4c-0.1-0.2-0.3-0.2-0.4-0.4c-0.1-0.1-0.2-0.2-0.3-0.3
				c-0.6-0.3-0.7-1-0.2-2.1c-0.1-0.3-0.1-0.3-0.3-0.6c-1.3-2.7-2.7-3.8-1.7-7.2c0-0.2-0.2-0.3-0.3-0.1c-0.7,1.6-0.8,3.2-0.2,4.8
				c0.3,0.9,1.2,1.7,1.5,2.6c0.3,0.8-0.2,1.5-0.1,2.3c0.1,0.5,0.2,0.3,0.4,0.8c0.3,0.5,0.3-0.3,1.3,1.2c0.2,0.4,0.3,1.1,0.5,1.5
				c0.5,1.2,1,2.1,2.3,2.3c0.1,1.1,1.1,2.4,1.6,3.2c-0.4,0.2-0.7,0.4-1.1,0.5c-1.5,0.1-4-3.4-4.9-4.5c-0.8-1-1.6-2.3-2.6-3.1
				c-0.3-0.3-0.3,0.1-0.4,0.3c-0.2-0.1-0.4-0.3-0.6-0.4c-0.2-0.1-0.3-0.2-0.5-0.3c-0.1,0-0.2-0.1-0.3-0.1c-0.2-0.2-0.4-0.4-0.6-0.7
				c-0.1-0.1-0.3,0-0.2,0.2c0.4,0.5,0.8,0.7,1.3,1.1c0,0,0,0,0.1,0.1c0.2,0.2,0.4,0.4,0.7,0.5c0.7,0.6,1.3,1.2,2,2
				c1.8,2.1,3.7,4,5.7,5.8c0.1,0.1,0.3,0.1,0.4-0.1c2.7-0.8,4.2-0.1,4.4,2.1c0.1,0.3,0.2,0.6,0.2,0.9c0.4,1.3,1,2.4,1.7,3.6
				c0.1,0.2,0.5,0.3,0.6,0.1c0.9-1.6,2.3-2.4,4-3c2.1-0.7,1.2,0.2,2.1,1.4c1.1,1.5,1.5,0.1,2.9,0.3c1.1,0.2,0.9,1.6,1.3,2.4
				c0.6,1.4,1.7,2.6,2.2,4.1c0.6,1.7,0.2,3.2,2,4.1C298.3,107.2,298.6,106.4,298.1,106.2z"/>
			<path id="XMLID_132_" d="M357.2,52.6c-3.1-1.4-7.1,0-10,1.3c-3.4,1.5-6.5,3.9-8.7,7c-2.8,3.9-4.8,8.5-7,12.7
				c-2.1,4-4.6,8.1-4.6,12.7c0,0.1,0.1,0.1,0.1,0c0.1-4.3,2.3-7.9,4.3-11.6c2-3.7,3.9-7.4,6-11c1.9-3.3,4.4-6.1,7.7-8.1
				c3.1-1.9,8.3-4.2,11.9-2.6C357.3,53,357.5,52.7,357.2,52.6z"/>
			<path id="XMLID_131_" d="M287.4,39.3c-0.1-0.1-0.3,0-0.2,0.2c6.9,7.4,7.9,17.8,6.1,27.3c-1,5-2.9,9.6-4.1,14.5
				c-1.1,4.2-0.9,8.4-0.6,12.7c0,0.4,0.6,0.3,0.6-0.1c-0.4-6,0.1-11.1,2-16.9c1.5-4.6,2.8-9.3,3.3-14.1
				C295.2,54.4,293.4,45.5,287.4,39.3z"/>
		</g>
		<g id="XMLID_5_">
			<circle id="XMLID_11_" cx="299.5" cy="128.5" r="4.5"/>
			<circle id="XMLID_12_" class="st21" cx="299.4" cy="128.3" r="4"/>
			<circle id="XMLID_13_" cx="299.4" cy="128.3" r="3.1"/>
			<circle id="XMLID_53_" class="st2" cx="303.2" cy="127.9" r="1.5"/>
		</g>
		<g id="XMLID_19_">
			
				<ellipse id="XMLID_46_" transform="matrix(-0.8351 -0.5501 0.5501 -0.8351 519.8755 422.3799)" cx="323.2" cy="133.3" rx="0.8" ry="1.5"/>
			<path id="XMLID_74_" d="M271.5,183c-0.3,0.2-0.6,0.4-0.9,0.6c0,0,0,0,0,0c-2,1.4-4.1,2.5-6.4,3.1c-2.4,0.7-4.9,0.5-7.3,1
				c0,0,0,0,0,0.1c4.9,1.7,11.3-1.2,15.1-4.2C272.3,183.4,271.8,182.8,271.5,183z"/>
			<path id="XMLID_75_" d="M274.4,184.5c-1.5,1.3-2.8,2.6-4.8,3.3c-1.7,0.6-3.5,0.7-5.3,0.6c-0.2,0-0.2,0.2,0,0.3
				c3.6,0.8,8.4-0.7,10.4-4C274.8,184.5,274.6,184.4,274.4,184.5z"/>
			<path id="XMLID_76_" d="M287.6,183.5c-2.2,2.4-4.4,4.3-7.4,5.6c0.4-0.3,0.8-0.5,1.3-0.7c0.1,0,0.1-0.2-0.1-0.2
				c-1.1,0.3-1.9,0.7-2.7,1.5c-0.2,0.2,0,0.5,0.2,0.4c3.5-1,6.9-3.3,8.7-6.5C287.8,183.5,287.7,183.4,287.6,183.5z"/>
			<path id="XMLID_77_" d="M289.3,185.6c-1.5,2.3-3.5,3.9-6.2,4.7c-0.4,0.1-0.2,0.7,0.2,0.6c2.7-0.7,5.1-2.6,6.3-5.2
				C289.6,185.6,289.4,185.5,289.3,185.6z"/>
			<path id="XMLID_78_" d="M294.4,188.8c-2.4,2.2-5,3.7-8.4,3c-0.1,0-0.1,0.1,0,0.1c3,1,7.2,0.1,8.7-3
				C294.7,188.9,294.5,188.7,294.4,188.8z"/>
			<path id="XMLID_79_" d="M241.8,259.9c-2.6,3.2-5.6,6-9.2,8c0,0,0,0.1,0,0.1c3.8-1.9,7-4.4,9.3-8
				C242.1,259.9,241.9,259.8,241.8,259.9z"/>
			<path id="XMLID_80_" d="M263,239.5c-0.1-0.3-0.5-0.2-0.5,0c-1.4,3.9-3.4,7.5-5.9,10.8c-2,2.6-7.5,10-11.2,7.3
				c-0.2-0.1-0.4,0.2-0.2,0.3c3.2,3,7.6-2.3,9.6-4.4c1.7-1.9,3.3-3.9,4.6-6.1c0.8-1.4,3.5-5.5,3.3-6.7c0.1,0.3,0.6,0.2,0.5-0.1
				C263.1,240.2,263,239.9,263,239.5z"/>
			<path id="XMLID_81_" d="M269.9,243.9c-1.4,1.7-2.7,3.3-4.4,4.6c-1.1,0.8-3,2-2.8-0.7c0.1-1,1-2.2,1.5-3c0.1-0.2-0.2-0.4-0.3-0.2
				c-0.8,0.9-3.7,5.6-0.7,5.6c1.3,0,2.6-1.1,3.5-1.9c1.4-1.1,2.8-2.6,3.5-4.3C270.2,243.9,270,243.7,269.9,243.9z"/>
			<path id="XMLID_85_" d="M274,241.2c-0.6,0.5-1.2,0.7-2,0.7c0-0.4-0.1-0.9-0.1-1.3c0-0.1-0.1-0.1-0.1,0c0,0.5,0,1,0,1.5
				c0,0,0,0.1,0.1,0.1c0.8,0.2,1.7-0.1,2.3-0.8C274.2,241.3,274,241.2,274,241.2z"/>
			<path id="XMLID_86_" d="M232.6,224c-3-0.1-5.8-2.2-5.8-5.4c0-0.2-0.4-0.2-0.4,0c-0.2,3.2,2.9,6.5,6.2,5.7
				C232.8,224.2,232.7,224,232.6,224z"/>
			<path id="XMLID_87_" d="M243.7,224.6c-2.6,0.3-5-1-5.4-3.8c0-0.2-0.2-0.2-0.3,0c-0.2,2.7,3.2,5.5,5.7,4.1
				C244,224.8,243.9,224.5,243.7,224.6z"/>
			<path id="XMLID_88_" d="M265.4,216.2c-1,0.6-2.1,0.9-3.3,0.7c-0.2,0-0.2,0.2-0.1,0.3c1.2,0.4,2.5,0.2,3.5-0.7
				C265.7,216.3,265.5,216.2,265.4,216.2z"/>
			<path id="XMLID_89_" d="M279.6,202.8c-1.4,1.4-2.9,1.4-4.8,1.3c-0.2,0-0.3,0.3-0.1,0.3c1.7,0.8,3.9-0.2,5-1.5
				C279.9,202.8,279.7,202.7,279.6,202.8z"/>
			<path id="XMLID_129_" d="M213.6,236c-1.7-0.7-3.4-1.4-4.9-2.5c-0.2-0.2-0.5,0.1-0.3,0.3c1.3,1.4,3.1,2.5,5.1,2.5
				C213.7,236.2,213.8,236,213.6,236z"/>
			<path id="XMLID_130_" d="M228.8,239.6c-3.4,0.3-5.9,0.2-9.1-1.4c-0.1-0.1-0.3,0.1-0.1,0.2c2.5,1.8,6.3,2.6,9.2,1.4
				C229,239.8,229,239.6,228.8,239.6z"/>
			<path id="XMLID_144_" d="M221,247.3c-2.7,0.3-5.2,0.4-7.8-0.4c-0.1,0-0.2,0.2-0.1,0.2c2.5,0.9,5.4,1.4,7.9,0.4
				C221.2,247.5,221.2,247.3,221,247.3z"/>
			<path id="XMLID_145_" d="M270.7,147.8c-2.4-0.3-6.5-0.7-6.2-4.1c0-0.1-0.2-0.1-0.2,0c-0.4,3.6,3.7,4.4,6.4,4.3
				C270.9,148,270.9,147.8,270.7,147.8z"/>
			<path id="XMLID_146_" d="M302,153.8c-1,1-2.1,1.9-3.3,2.6c-1.1,0.7-2.3,1.1-3.5,1.6c-0.2,0.1-0.1,0.4,0.1,0.4
				c2.7-0.3,5.4-2.2,7-4.3C302.4,153.9,302.2,153.7,302,153.8z"/>
			<path id="XMLID_147_" d="M294.9,162.4c-2.2,1.5-4.7,2.1-7.4,2.2c-0.2,0-0.2,0.3,0,0.3c2.8,0.6,5.5-0.4,7.6-2.3
				C295.2,162.5,295,162.3,294.9,162.4z"/>
			<path id="XMLID_148_" d="M272.5,161.6c-3.4,1.8-6.5,1.5-9.9-0.1c-0.2-0.1-0.4,0.1-0.2,0.3c2.8,2.3,7.4,2.2,10.3,0.1
				C272.9,161.8,272.7,161.5,272.5,161.6z"/>
			<path id="XMLID_149_" d="M260.3,166.6c-2.1,0.2-3.9,0.3-6-0.4c0,0-0.1,0.1,0,0.1c1.8,0.8,4.1,1.2,6,0.5
				C260.4,166.7,260.4,166.6,260.3,166.6z"/>
			<path id="XMLID_150_" d="M248.3,169.7c-2.5-0.5-4.7-1.1-6.9-2.7c-0.2-0.1-0.4,0.2-0.2,0.3c1.9,1.7,4.5,3,7,2.8
				C248.5,170.1,248.6,169.8,248.3,169.7z"/>
			<path id="XMLID_151_" d="M252.8,176.5c-1.6-0.1-3-0.3-4.4-1c-0.3-0.1-0.5,0.3-0.2,0.4c1.4,0.7,3.1,1.2,4.7,0.9
				C253,176.8,252.9,176.6,252.8,176.5z"/>
			<path id="XMLID_67_" d="M292.1,125.7c-1.3-0.2-2.3-0.4-3.3-1.4c-0.2-0.2-0.3-0.3-0.4-0.5c0,0,0.1,0,0.1-0.1
				c0.2-0.1,0.1-0.3-0.1-0.3c-0.1,0-0.1,0-0.2,0c-0.5-0.8-0.8-1.7-0.8-2.7c0-0.1-0.1-0.1-0.1,0c-0.2,0.9,0,1.9,0.5,2.8
				c-1.5,0.3-2.8,0.5-4.4,0.2c-1.3-0.3-2.4-1.1-3.7-1.3c0,0-0.1,0,0,0c1.4,2.1,6,2.6,8.3,1.5c0.9,1.4,2.4,2.4,4.1,2
				C292.3,126,292.3,125.7,292.1,125.7z"/>
			<path id="XMLID_66_" d="M276.8,130c-2.6,1.6-4.5,4.2-5.1,7.2c0,0.2,0.1,0.4,0.4,0.4c0.5-0.1,0.9-0.3,1.3-0.5c0.1,0,0.1-0.2,0-0.2
				c-1.5,0.1-0.7-1-0.2-2c0.5-1.1,1.2-2.1,2.1-2.9c1.7-1.6,4.8-3.6,6.9-1.7c0,0,0.1,0,0,0C281.1,128.1,278.4,129,276.8,130z"/>
			<path id="XMLID_68_" d="M282.3,136.2c-1.3,1.1-2.8,1.9-4.5,2.3c-1.5,0.4-3,0.3-4.5,0.4c-0.1,0-0.1,0.1,0,0.1
				C276.4,140,280.1,138.2,282.3,136.2C282.3,136.2,282.3,136.2,282.3,136.2z"/>
			<path id="XMLID_69_" d="M282.3,140.3c-1.3,0.2-2.4,0.8-3.2,1.8c-0.6,0.7-1.6,2.1-1.3,3c0,0.1,0.2,0.1,0.2,0
				c0.3-0.4,0.3-0.9,0.4-1.3c0.2-0.6,0.6-1.1,1-1.6c0.7-0.9,1.8-1.6,2.9-1.9C282.4,140.3,282.3,140.2,282.3,140.3z"/>
			<path id="XMLID_70_" d="M296.6,147.7c-1.3,0.8-2.5,1.8-4,2.2c-0.7,0.2-1.8,0.6-2.5,0.4c-1-0.3-1.3-3.2-0.4-4
				c0.2-0.2-0.1-0.4-0.3-0.3c-2.7,1.3-5.4,1.6-8.3,1.1c-0.1,0-0.1,0.1,0,0.1c1.3,0.3,2.5,0.6,3.9,0.5c1.2-0.1,2.3-0.6,3.4-0.8
				c-0.1,0.1-0.2,0.2-0.3,0.3c-0.5,0.5-0.8,1.3-0.7,2c0.5,4,8,0.4,9.3-1.3C296.8,147.7,296.7,147.6,296.6,147.7z"/>
			<path id="XMLID_71_" d="M323.9,130.8c-1.1,0.3-2.1,1.4-2.8,2.3c-0.9,1.1-1.5,2.5-1.7,3.9c0,0.2,0.2,0.2,0.3,0.1
				c0.3-1.3,0.8-2.6,1.6-3.7c0.8-1,1.8-1.6,2.7-2.5C324.1,130.9,324,130.8,323.9,130.8z"/>
			<path id="XMLID_72_" d="M333.1,129.1c-0.4-0.1-0.7-0.4-0.9-0.8l0,0c0.1-0.1,0-0.3-0.1-0.3c-0.8,0-1.7,0.6-2.3,1.1
				c-0.7,0.4-1.3,0.9-1.9,1.5c0-0.1,0-0.1-0.1-0.1c-0.9-0.1-1.8,0.3-2.6,0.8c0-0.2,0-0.3-0.1-0.5c0-0.1-0.1-0.1-0.2-0.1
				c-0.3,0.1-0.6,0.2-0.9,0.3c0,0,0,0,0,0c0.7,0,1-0.1,0.6,0.7c-0.1,0.2,0.2,0.4,0.4,0.3c0.9-0.7,1.8-0.9,2.8-1.3
				c-0.1,0.1-0.2,0.1-0.3,0.2c0,0,0,0.1,0.1,0.1c0.7-0.6,1.6-1.2,2.4-1.6c0.7-0.3,1.5-0.5,2.1-1C332.4,128.7,332.7,129,333.1,129.1
				C333.1,129.2,333.1,129.1,333.1,129.1z"/>
		</g>
		<path id="XMLID_174_" class="st22" d="M337.5,151.5c-0.2,0.2-0.4,0.4-0.6,0.6c-1,1.3-0.8,2.9-1.2,2.9c-0.5,0.1-0.6-2-1.9-3.8
			c-0.7-1-1.5-1.6-5.3-3.5c-5.5-2.7-5.5-2.2-6.8-3.3c-1.7-1.4-2.6-2.9-3.2-4c-0.2,0.5-0.3,1.1-0.3,1.6c-0.3,3.5,1.6,5.9,1.6,5.9
			c1.2,1.5,2.9,2.2,3.9,2.6c1.7,0.7,2.3,0.5,4.3,1.1c1,0.3,3.2,1,4.5,2.2c2.9,2.7,1.9,8,1.7,9C335,161.2,337.3,157.1,337.5,151.5z"
			/>
		<path id="XMLID_165_" class="st23" d="M327.8,156.8c-1.3-0.1-3-0.3-4.7-1.5c-3.3-2.2-3.4-6-5.4-6.3c-0.8-0.1-2.2,0.4-4.1,3.4
			c-0.3,0.7-1.7,3.8-0.2,5.6c0.4,0.5,0.9,0.7,1.8,1.1c2.9,1.2,5.7,0.8,6.9,0.6c1-0.2,1.8-0.3,2.8-0.8
			C326.3,158.4,327.2,157.5,327.8,156.8z"/>
		<path id="XMLID_163_" class="st17" d="M323.4,139.8c0.2-0.3,1.6,0.2,2.5,0.8c1.7,1,2.6,2.9,2.4,3.1
			C327.8,144.1,323,140.3,323.4,139.8z"/>
	</g>
</g>
</svg>
